<svg width="55" height="42" viewBox="0 0 55 42" fill="none" xmlns="http://www.w3.org/2000/svg">
<path d="M39.9905 9.30767C39.5052 7.55354 39.0204 5.79933 38.5351 4.0452C38.4466 3.72469 38.3577 3.40401 38.2692 3.08334C38.2005 2.83502 37.8428 2.80677 37.5998 2.67929C36.9639 2.34553 36.0821 1.93853 35.3376 1.93853C34.6867 1.93853 33.8541 2.77364 33.3732 3.12453C32.7154 3.6046 32.3942 4.34272 32.1934 5.04725C31.9975 5.73553 32.4977 6.40865 32.1434 7.13024C31.8066 7.8159 30.9728 8.33103 30.1968 8.5856C28.5196 9.13577 26.743 9.16314 25.0618 8.5706C24.3289 8.31234 23.4974 7.90848 23.071 7.29795C22.6107 6.63897 22.8414 5.86175 22.8414 5.13966C22.8414 4.3696 22.4227 3.74969 21.8745 3.17425C21.6583 2.94721 21.273 2.65669 21.0044 2.47446C20.8326 2.35798 20.1043 1.87146 19.9323 1.87146C19.1011 1.87146 18.3109 2.14646 17.599 2.5205C17.4934 2.57613 16.8752 2.85566 16.8603 2.9139C16.7844 3.20825 16.7082 3.50279 16.6323 3.79735C16.3481 4.8989 16.0638 6.00044 15.7796 7.10206C15.6612 7.56033 15.543 8.01846 15.4249 8.47666C15.3922 8.60344 15.2096 8.97888 15.2625 9.10652C15.3288 9.26765 15.828 9.50044 15.9759 9.60333C16.5146 9.97842 17.0533 10.3537 17.5919 10.729C17.9185 10.9566 18.6646 11.7204 19.106 11.7188C23.4101 11.7038 27.714 11.6888 32.0185 11.6738C33.8886 11.6671 35.7586 11.6607 37.6285 11.6542C38.1288 11.6525 38.1216 11.6907 38.4219 11.3184C38.7762 10.8789 39.1308 10.4396 39.4851 10.0003C39.6489 9.7978 39.9397 9.55088 39.9903 9.30779" fill="#0B0D12"/>
<path d="M39.9905 9.30767C39.5052 7.55354 39.0204 5.79933 38.5351 4.0452C38.4466 3.72469 38.3577 3.40401 38.2692 3.08334C38.2005 2.83502 37.8428 2.80677 37.5998 2.67929C36.9639 2.34553 36.0821 1.93853 35.3376 1.93853C34.6867 1.93853 33.8541 2.77364 33.3732 3.12453C32.7154 3.6046 32.3942 4.34272 32.1934 5.04725C31.9975 5.73553 32.4977 6.40865 32.1434 7.13024C31.8066 7.8159 30.9728 8.33103 30.1968 8.5856C28.5196 9.13577 26.743 9.16314 25.0618 8.5706C24.3289 8.31234 23.4974 7.90848 23.071 7.29795C22.6107 6.63897 22.8414 5.86175 22.8414 5.13966C22.8414 4.3696 22.4227 3.74969 21.8745 3.17425C21.6583 2.94721 21.273 2.65669 21.0044 2.47446C20.8326 2.35798 20.1043 1.87146 19.9323 1.87146C19.1011 1.87146 18.3109 2.14646 17.599 2.5205C17.4934 2.57613 16.8752 2.85566 16.8603 2.9139C16.7844 3.20825 16.7082 3.50279 16.6323 3.79735C16.3481 4.8989 16.0638 6.00044 15.7796 7.10206C15.6612 7.56033 15.543 8.01846 15.4249 8.47666C15.3922 8.60344 15.2096 8.97888 15.2625 9.10652C15.3288 9.26765 15.828 9.50044 15.9759 9.60333C16.5146 9.97842 17.0533 10.3537 17.5919 10.729C17.9185 10.9566 18.6646 11.7204 19.106 11.7188C23.4101 11.7038 27.714 11.6888 32.0185 11.6738C33.868 11.6673 35.7178 11.6609 37.5676 11.6544C37.9263 11.6532 38.0923 11.7271 38.2975 11.4725C38.8617 10.7733 39.4259 10.0738 39.9901 9.37442" fill="#0B0D12"/>
<path d="M39.9905 9.30767C39.5052 7.55354 39.0204 5.79933 38.5351 4.0452C38.4466 3.72469 38.3577 3.40401 38.2692 3.08334C38.2005 2.83502 37.8428 2.80677 37.5998 2.67929C36.9639 2.34553 36.0821 1.93853 35.3376 1.93853C34.6867 1.93853 33.8541 2.77364 33.3732 3.12453C32.7154 3.6046 32.3942 4.34272 32.1934 5.04725C31.9975 5.73553 32.4977 6.40865 32.1434 7.13024C31.8066 7.8159 30.9728 8.33103 30.1968 8.5856C28.5196 9.13577 26.743 9.16314 25.0618 8.5706C24.3289 8.31234 23.4974 7.90848 23.071 7.29795C22.6107 6.63896 22.8414 5.86175 22.8414 5.13966C22.8414 4.3696 22.4227 3.74969 21.8745 3.17425C21.6583 2.94721 21.273 2.65669 21.0044 2.47446C20.8326 2.35798 20.1043 1.87146 19.9323 1.87146C19.1011 1.87146 18.3109 2.14646 17.599 2.5205C17.4934 2.57613 16.8752 2.85566 16.8603 2.9139C16.7844 3.20825 16.7082 3.50279 16.6323 3.79735C16.3481 4.8989 16.0638 6.00044 15.7796 7.10206C15.6612 7.56033 15.543 8.01846 15.4249 8.47666C15.3922 8.60343 15.2096 8.97888 15.2625 9.10652C15.3288 9.26765 15.828 9.50044 15.9759 9.60333C16.5146 9.97842 17.0533 10.3537 17.5919 10.729C17.9185 10.9566 18.6646 11.7204 19.106 11.7188C23.4101 11.7038 27.714 11.6888 32.0185 11.6738C33.868 11.6673 35.7178 11.6609 37.5676 11.6544C37.9263 11.6532 38.0923 11.7271 38.2975 11.4725C38.8617 10.7733 39.4259 10.0738 39.9901 9.37442" stroke="#0B0D12" stroke-width="0.1" stroke-miterlimit="10" stroke-linecap="square"/>
<path d="M26.8229 13.4602C26.1242 12.9328 24.899 12.959 24.0353 13.0532C23.0462 13.1608 21.9677 13.0581 20.9703 13.0581C19.9625 13.0581 18.9479 13.0401 17.9425 12.9914C17.4236 12.9663 15.0869 12.8028 16.0283 11.9866C15.0999 12.3922 12.668 12.4099 12.8127 11.0485C12.0357 11.2427 11.2417 11.3243 10.4391 11.1826C9.90577 11.0882 8.3613 10.6776 8.9849 9.9769C8.21506 9.93469 4.25987 9.644 5.69289 8.23504C4.94199 8.13651 4.10378 7.90842 3.42442 7.61111C2.7359 7.30978 1.92023 7.07873 1.35745 6.58537C1.05235 6.3177 0.75661 6.06397 1.31162 5.86954C1.78831 5.70232 2.23787 5.68924 2.74666 5.68924C3.70163 5.68924 4.62814 5.73353 5.58809 5.69865C9.14274 5.56892 12.5467 4.7673 15.7216 3.37833C16.1044 3.21093 16.4873 3.04335 16.8701 2.87595C16.3021 3.514 17.4291 3.92883 17.9705 4.00766C18.5979 4.09904 19.2647 3.98604 19.856 3.81375C19.856 4.30497 19.8117 4.713 20.2382 5.08657C20.5154 5.32931 21.1675 5.44265 21.5396 5.2878C21.644 6.01828 21.7018 6.79636 22.1444 7.44247C22.63 8.15098 23.2213 8.66907 24.0212 9.10676C25.2008 9.75197 27.2861 9.98945 28.5067 9.84299C29.8911 9.67698 31.9611 9.15506 32.657 7.93859C33.0972 7.16905 33.3254 6.45617 33.4547 5.60507C33.5079 5.25474 33.9248 5.48562 34.2481 5.42163C34.5751 5.35676 34.9992 5.11977 35.11 4.83362C35.2349 4.51066 35.2305 4.28031 35.1676 3.94798C36.1612 4.09272 38.6664 4.46607 38.2298 2.94317C39.8597 3.65621 41.4717 4.31482 43.1896 4.85227C44.855 5.37333 46.7003 5.5505 48.4533 5.69631C49.3238 5.76868 50.2169 5.84035 51.0908 5.82361C51.9501 5.80722 52.9732 5.65184 53.7867 5.93678C54.7435 6.27194 53.0585 7.11228 52.6982 7.29751C52.0428 7.63458 51.2758 7.83477 50.5555 8.03409C50.1685 8.14116 49.8084 8.23218 49.4071 8.30246C50.0448 8.88419 49.3469 9.48577 48.7116 9.69437C47.8702 9.97059 47.0043 9.99552 46.1143 10.044C46.7328 10.7347 45.1711 11.1764 44.639 11.243C43.7852 11.3498 43.0453 11.2987 42.2101 11.1159C42.6001 11.7515 41.4371 12.1371 40.969 12.301C40.4126 12.4956 39.5664 12.2706 39.0714 12.0537C39.419 12.6068 39.1121 12.6958 38.5186 12.9038C38.0734 13.06 37.4246 13.0311 36.9496 13.0689C35.7667 13.1629 34.5542 13.1927 33.3661 13.1927C32.264 13.1927 31.1509 13.1254 30.043 13.1254C29.536 13.1254 28.9808 13.1455 28.5065 13.3267C28.1941 13.4461 28.2451 13.5298 27.889 13.5124C27.5342 13.4949 27.1785 13.4775 26.8228 13.4602" fill="#0B0D12"/>
<path d="M26.8229 13.4602C26.1242 12.9328 24.899 12.959 24.0353 13.0532C23.0462 13.1608 21.9677 13.0581 20.9703 13.0581C19.9625 13.0581 18.9479 13.0401 17.9425 12.9914C17.4236 12.9663 15.0869 12.8028 16.0283 11.9866C15.0999 12.3922 12.668 12.4099 12.8127 11.0485C12.0357 11.2427 11.2417 11.3243 10.4391 11.1826C9.90577 11.0882 8.3613 10.6776 8.9849 9.9769C8.21506 9.93469 4.25987 9.644 5.69289 8.23504C4.94199 8.13651 4.10378 7.90842 3.42442 7.61111C2.7359 7.30978 1.92023 7.07873 1.35745 6.58537C1.05235 6.3177 0.75661 6.06397 1.31162 5.86954C1.78831 5.70232 2.23787 5.68924 2.74666 5.68924C3.70163 5.68924 4.62814 5.73353 5.58809 5.69865C9.14274 5.56892 12.5467 4.7673 15.7216 3.37833C16.1044 3.21093 16.4873 3.04335 16.8701 2.87595C16.3021 3.514 17.4291 3.92883 17.9705 4.00766C18.5979 4.09904 19.2647 3.98604 19.856 3.81375C19.856 4.30497 19.8117 4.713 20.2382 5.08657C20.5154 5.32931 21.1675 5.44265 21.5396 5.2878C21.644 6.01828 21.7018 6.79636 22.1444 7.44247C22.63 8.15098 23.2213 8.66907 24.0212 9.10676C25.2008 9.75197 27.2861 9.98945 28.5067 9.84299C29.8911 9.67698 31.9611 9.15506 32.657 7.93859C33.0972 7.16905 33.3254 6.45617 33.4547 5.60507C33.5079 5.25474 33.9248 5.48562 34.2481 5.42163C34.5751 5.35676 34.9992 5.11977 35.11 4.83362C35.2349 4.51066 35.2305 4.28031 35.1676 3.94798C36.1612 4.09272 38.6664 4.46607 38.2298 2.94317C39.8597 3.65621 41.4717 4.31482 43.1896 4.85227C44.855 5.37333 46.7003 5.5505 48.4533 5.69631C49.3238 5.76868 50.2169 5.84035 51.0908 5.82361C51.9501 5.80722 52.9732 5.65184 53.7867 5.93678C54.7435 6.27194 53.0585 7.11228 52.6982 7.29751C52.0428 7.63458 51.2758 7.83477 50.5555 8.03409C50.1685 8.14116 49.8084 8.23218 49.4071 8.30246C50.0448 8.88419 49.3469 9.48577 48.7116 9.69437C47.8702 9.97059 47.0043 9.99552 46.1143 10.044C46.7328 10.7347 45.1711 11.1764 44.639 11.243C43.7852 11.3498 43.0453 11.2987 42.2101 11.1159C42.6001 11.7515 41.4371 12.1371 40.969 12.301C40.4126 12.4956 39.5664 12.2706 39.0714 12.0537C39.419 12.6068 39.1121 12.6958 38.5186 12.9038C38.0734 13.06 37.4246 13.0311 36.9496 13.0689C35.7667 13.1629 34.5542 13.1927 33.3661 13.1927C32.264 13.1927 31.1509 13.1254 30.043 13.1254C29.536 13.1254 28.9808 13.1455 28.5065 13.3267C28.1941 13.4461 28.2451 13.5298 27.889 13.5124C27.5342 13.4949 27.1785 13.4775 26.8228 13.4602" fill="#0B0D12"/>
<path d="M26.8229 13.4602C26.1242 12.9328 24.899 12.959 24.0353 13.0532C23.0462 13.1608 21.9677 13.0581 20.9703 13.0581C19.9625 13.0581 18.9479 13.0401 17.9425 12.9914C17.4236 12.9663 15.0869 12.8028 16.0283 11.9866C15.0999 12.3922 12.668 12.4099 12.8127 11.0485C12.0357 11.2427 11.2417 11.3243 10.4391 11.1826C9.90577 11.0882 8.3613 10.6776 8.9849 9.9769C8.21506 9.93469 4.25987 9.644 5.69289 8.23504C4.94199 8.13651 4.10378 7.90842 3.42442 7.61111C2.7359 7.30978 1.92023 7.07873 1.35745 6.58537C1.05235 6.3177 0.75661 6.06397 1.31162 5.86954C1.78831 5.70232 2.23787 5.68924 2.74666 5.68924C3.70163 5.68924 4.62814 5.73353 5.58809 5.69865C9.14274 5.56892 12.5467 4.7673 15.7216 3.37833C16.1044 3.21093 16.4873 3.04335 16.8701 2.87595C16.3021 3.514 17.4291 3.92883 17.9705 4.00766C18.5979 4.09904 19.2647 3.98604 19.856 3.81375C19.856 4.30497 19.8117 4.713 20.2382 5.08657C20.5154 5.32931 21.1675 5.44265 21.5396 5.2878C21.644 6.01828 21.7018 6.79636 22.1444 7.44247C22.63 8.15098 23.2213 8.66907 24.0212 9.10676C25.2008 9.75197 27.2861 9.98945 28.5067 9.84299C29.8911 9.67698 31.9611 9.15506 32.657 7.93859C33.0972 7.16905 33.3254 6.45617 33.4547 5.60507C33.5079 5.25474 33.9248 5.48562 34.2481 5.42163C34.5751 5.35676 34.9992 5.11977 35.11 4.83362C35.2349 4.51066 35.2305 4.28031 35.1676 3.94798C36.1612 4.09272 38.6664 4.46607 38.2298 2.94317C39.8597 3.65621 41.4717 4.31482 43.1896 4.85227C44.855 5.37333 46.7003 5.5505 48.4533 5.69631C49.3238 5.76868 50.2169 5.84035 51.0908 5.82361C51.9501 5.80722 52.9732 5.65184 53.7867 5.93678C54.7435 6.27194 53.0585 7.11228 52.6982 7.29751C52.0428 7.63458 51.2758 7.83477 50.5555 8.03409C50.1685 8.14116 49.8084 8.23218 49.4071 8.30246C50.0448 8.88419 49.3469 9.48577 48.7116 9.69437C47.8702 9.97059 47.0043 9.99552 46.1143 10.044C46.7328 10.7347 45.1711 11.1764 44.639 11.243C43.7852 11.3498 43.0453 11.2987 42.2101 11.1159C42.6001 11.7515 41.4371 12.1371 40.969 12.301C40.4126 12.4956 39.5664 12.2706 39.0714 12.0537C39.419 12.6068 39.1121 12.6958 38.5186 12.9038C38.0734 13.06 37.4246 13.0311 36.9496 13.0689C35.7667 13.1629 34.5542 13.1927 33.3661 13.1927C32.264 13.1927 31.1509 13.1254 30.043 13.1254C29.536 13.1254 28.9808 13.1455 28.5065 13.3267C28.1941 13.4461 28.2451 13.5298 27.889 13.5124C27.5342 13.4949 27.1785 13.4775 26.8228 13.4602" stroke="#0B0D12" stroke-width="0.1" stroke-miterlimit="10" stroke-linecap="square"/>
<path d="M26.4405 31.4141C26.7022 31.4415 26.814 31.0298 26.9766 30.8781C27.25 30.6231 27.6249 30.4332 27.9549 30.2405C28.5864 29.8716 29.2491 29.4487 29.9145 29.1569C30.6492 28.8348 31.3136 28.5464 31.8762 27.9975C32.0353 27.8423 33.0409 26.2558 32.5831 26.2558H30.9406C30.2437 26.2558 30.4964 26.2596 30.1879 26.7086C29.7473 27.3495 29.1042 27.8472 28.3548 28.1985C26.8767 28.8917 25.5612 29.5343 24.78 30.9035C24.5232 31.3538 24.6029 31.8645 24.6029 32.3524C25.2408 32.0621 25.8787 31.7716 26.5168 31.4812C26.4911 31.4586 26.4658 31.4364 26.4405 31.4141" fill="#0B0D12"/>
<g opacity="0.75">
<path d="M30.2689 26.1884C30.2689 27.635 28.1513 28.2047 26.9766 28.8009C26.3568 29.1155 25.5621 29.7047 25.1919 30.2427C24.6906 30.9716 24.6027 31.5129 24.6027 32.352" fill="#0B0D12"/>
<path d="M30.2689 26.1884C30.2689 27.635 28.1513 28.2047 26.9766 28.8009C26.3568 29.1155 25.5621 29.7047 25.1919 30.2427C24.6906 30.9716 24.6027 31.5129 24.6027 32.352" stroke="#0B0D12" stroke-width="0.1" stroke-miterlimit="10" stroke-linecap="square"/>
</g>
<g opacity="0.75">
<path d="M26.4404 31.4141C26.7021 31.4415 26.8139 31.0298 26.9765 30.8781C27.23 30.6418 27.5837 30.4479 27.8952 30.2752C28.5241 29.9266 29.1582 29.4882 29.8091 29.2031C31.2246 28.5825 32.6413 27.7962 32.6413 26.2557" fill="#0B0D12"/>
<path d="M26.4404 31.4141C26.7021 31.4415 26.8139 31.0298 26.9765 30.8781C27.23 30.6418 27.5837 30.4479 27.8952 30.2752C28.5241 29.9266 29.1582 29.4882 29.8091 29.2031C31.2246 28.5825 32.6413 27.7962 32.6413 26.2557" stroke="#0B0D12" stroke-width="0.1" stroke-miterlimit="10" stroke-linecap="square"/>
</g>
<path d="M26.5938 35.8356C26.5543 35.2148 27.5147 34.495 27.9715 34.0939C27.537 33.9139 27.1024 33.7338 26.6679 33.5537C26.3602 33.4262 26.0992 33.9239 25.8877 34.1087C25.4134 34.5234 24.9212 35.3013 24.9856 35.9028C25.5216 35.8805 26.0577 35.858 26.5938 35.8356" fill="#0B0D12"/>
<path d="M26.5938 35.8356C26.5543 35.2148 27.5147 34.495 27.9715 34.0939C27.537 33.9139 27.1024 33.7338 26.6679 33.5537C26.3602 33.4262 26.0992 33.9239 25.8877 34.1087C25.4134 34.5234 24.9212 35.3013 24.9856 35.9028" fill="#0B0D12"/>
<path d="M26.5938 35.8356C26.5543 35.2148 27.5147 34.495 27.9715 34.0939C27.537 33.9139 27.1024 33.7338 26.6679 33.5537C26.3602 33.4262 26.0992 33.9239 25.8877 34.1087C25.4134 34.5234 24.9212 35.3013 24.9856 35.9028" stroke="#0B0D12" stroke-width="0.1" stroke-miterlimit="10" stroke-linecap="square"/>
<path d="M27.971 36.7735C28.7733 36.6767 29.4764 36.1117 29.809 35.5007C30.0579 35.0435 29.9754 35.0351 29.4493 34.9034C28.7881 34.7383 28.1269 34.5728 27.4658 34.4077C27.192 34.3391 27.023 34.735 26.956 34.9673C26.8833 35.2194 26.4736 35.7211 26.516 35.9696C26.5543 36.1925 26.9977 36.3555 27.2223 36.4213C27.4273 36.4814 27.9879 36.889 27.971 36.7735" fill="#0B0D12"/>
<g opacity="0.75">
<path d="M27.9709 36.7735C28.7209 36.683 30.1491 35.8052 29.9618 35.0318L27.9709 36.7735Z" fill="#0B0D12"/>
<path d="M27.9709 36.7735C28.7209 36.683 30.1491 35.8052 29.9618 35.0318" stroke="#0B0D12" stroke-width="0.1" stroke-miterlimit="10" stroke-linecap="square"/>
</g>
<g opacity="0.75">
<path d="M46.4977 5.95782C47.9823 6.28147 49.6788 6.46318 51.2 6.29769C51.5079 6.26421 53.177 6.03682 53.3881 6.22567C53.7671 6.56502 52.0063 7.25099 51.7442 7.3494C51.2233 7.54471 50.5353 7.83331 49.96 7.83331H47.5431C46.7771 7.83331 45.9425 7.61568 45.1919 7.48402C44.6339 7.3862 43.4642 7.30476 43.0526 6.96262" fill="#0B0D12"/>
<path d="M46.4977 5.95782C47.9823 6.28147 49.6788 6.46318 51.2 6.29769C51.5079 6.26421 53.177 6.03682 53.3881 6.22567C53.7671 6.56502 52.0063 7.25099 51.7442 7.3494C51.2233 7.54471 50.5353 7.83331 49.96 7.83331H47.5431C46.7771 7.83331 45.9425 7.61568 45.1919 7.48402C44.6339 7.3862 43.4642 7.30476 43.0526 6.96262" stroke="#0B0D12" stroke-width="0.1" stroke-miterlimit="10" stroke-linecap="square"/>
</g>
<g opacity="0.75">
<path d="M40.9871 8.03419C41.7148 8.62447 43.1052 8.88831 44.0182 9.18826C45.0545 9.52864 46.2611 9.57538 47.3586 9.57538C47.8279 9.57538 48.4228 9.36926 48.8124 9.14118C49.3971 8.79887 48.8921 8.36937 48.3652 8.36937C47.1699 8.36937 46.0672 8.13866 44.8915 7.96777" fill="#0B0D12"/>
<path d="M40.9871 8.03419C41.7148 8.62447 43.1052 8.88831 44.0182 9.18826C45.0545 9.52864 46.2611 9.57538 47.3586 9.57538C47.8279 9.57538 48.4228 9.36926 48.8124 9.14118C49.3971 8.79887 48.8921 8.36937 48.3652 8.36937C47.1699 8.36937 46.0672 8.13866 44.8915 7.96777" stroke="#0B0D12" stroke-width="0.1" stroke-miterlimit="10" stroke-linecap="square"/>
</g>
<g opacity="0.75">
<path d="M40.6804 8.77133C41.356 9.1262 42.0866 9.33789 42.8321 9.55552C43.2159 9.66765 43.597 9.77873 43.9729 9.91021C44.2499 10.0072 44.8324 10.0567 45.0437 10.2452C45.6786 10.8123 43.8256 10.8006 43.5128 10.7809C42.7726 10.7347 42.2172 10.4759 41.5223 10.3122" fill="#0B0D12"/>
<path d="M40.6804 8.77133C41.356 9.1262 42.0866 9.33789 42.8321 9.55552C43.2159 9.66765 43.597 9.77873 43.9729 9.91021C44.2499 10.0072 44.8324 10.0567 45.0437 10.2452C45.6786 10.8123 43.8256 10.8006 43.5128 10.7809C42.7726 10.7347 42.2172 10.4759 41.5223 10.3122" stroke="#0B0D12" stroke-width="0.1" stroke-miterlimit="10" stroke-linecap="square"/>
</g>
<g opacity="0.75">
<path d="M38.2309 9.44128C38.7735 9.6807 42.0791 10.6374 41.2933 11.518C40.8429 12.0226 39.5818 11.689 39.0442 11.5319C38.3056 11.316 37.6271 11.0682 36.9286 10.781" fill="#0B0D12"/>
<path d="M38.2309 9.44128C38.7735 9.6807 42.0791 10.6374 41.2933 11.518C40.8429 12.0226 39.5818 11.689 39.0442 11.5319C38.3056 11.316 37.6271 11.0682 36.9286 10.781" stroke="#0B0D12" stroke-width="0.1" stroke-miterlimit="10" stroke-linecap="square"/>
</g>
<g opacity="0.75">
<path d="M35.8563 10.9818C36.3394 11.3318 37.0789 11.4313 37.6178 11.7184C37.9623 11.9018 38.8595 12.5895 37.9243 12.5895C37.6283 12.5895 37.3294 12.6884 37.0048 12.6565C36.6168 12.6183 36.2515 12.4806 35.8862 12.3744C35.0988 12.1456 34.4725 11.715 33.7899 11.3168" fill="#0B0D12"/>
<path d="M35.8563 10.9818C36.3394 11.3318 37.0789 11.4313 37.6178 11.7184C37.9623 11.9018 38.8595 12.5895 37.9243 12.5895C37.6283 12.5895 37.3294 12.6884 37.0048 12.6565C36.6168 12.6183 36.2515 12.4806 35.8862 12.3744C35.0988 12.1456 34.4725 11.715 33.7899 11.3168" stroke="#0B0D12" stroke-width="0.1" stroke-miterlimit="10" stroke-linecap="square"/>
</g>
<g opacity="0.75">
<path d="M39.7622 3.94788C40.6073 4.31949 41.4995 4.55611 42.3642 4.8857C42.9609 5.1131 44.2183 5.78571 42.8244 5.95783C40.8502 6.20162 38.7314 5.3829 36.9287 4.75166" fill="#0B0D12"/>
<path d="M39.7622 3.94788C40.6073 4.31949 41.4995 4.55611 42.3642 4.8857C42.9609 5.1131 44.2183 5.78571 42.8244 5.95783C40.8502 6.20162 38.7314 5.3829 36.9287 4.75166" stroke="#0B0D12" stroke-width="0.1" stroke-miterlimit="10" stroke-linecap="square"/>
</g>
<g opacity="0.75">
<path d="M38.1533 5.62283C38.8196 5.94282 39.6159 6.07535 40.2976 6.35941C40.5416 6.46108 41.1667 6.61192 41.2935 6.82832C41.4493 7.09477 41.1914 7.05868 40.8925 7.14604C40.0627 7.3886 39.2329 6.96451 38.4883 6.74741C37.6537 6.50397 36.8502 6.07204 36.0868 5.68949" fill="#0B0D12"/>
<path d="M38.1533 5.62283C38.8196 5.94282 39.6159 6.07535 40.2976 6.35941C40.5416 6.46108 41.1667 6.61192 41.2935 6.82832C41.4493 7.09477 41.1914 7.05868 40.8925 7.14604C40.0627 7.3886 39.2329 6.96451 38.4883 6.74741C37.6537 6.50397 36.8502 6.07204 36.0868 5.68949" stroke="#0B0D12" stroke-width="0.1" stroke-miterlimit="10" stroke-linecap="square"/>
</g>
<g opacity="0.75">
<path d="M35.0906 5.89084C35.864 6.24849 36.7281 6.51024 37.4561 6.93506C37.8307 7.15373 39.3766 7.61061 39.3014 8.10132C39.2084 8.70956 37.6986 8.30465 37.3397 8.14753C36.5017 7.78063 35.7813 7.24794 34.9381 6.89564" fill="#0B0D12"/>
<path d="M35.0906 5.89084C35.864 6.24849 36.7281 6.51024 37.4561 6.93506C37.8307 7.15373 39.3766 7.61061 39.3014 8.10132C39.2084 8.70956 37.6986 8.30465 37.3397 8.14753C36.5017 7.78063 35.7813 7.24794 34.9381 6.89564" stroke="#0B0D12" stroke-width="0.1" stroke-miterlimit="10" stroke-linecap="square"/>
</g>
<g opacity="0.75">
<path d="M35.1689 7.69919C35.5708 8.11631 36.1711 8.44589 36.6229 8.83821C36.8895 9.06979 37.4116 9.50818 36.7763 9.50818C35.746 9.50818 34.4339 8.61607 33.7904 7.96752" fill="#0B0D12"/>
<path d="M35.1689 7.69919C35.5708 8.11631 36.1711 8.44589 36.6229 8.83821C36.8895 9.06979 37.4116 9.50818 36.7763 9.50818C35.746 9.50818 34.4339 8.61607 33.7904 7.96752" stroke="#0B0D12" stroke-width="0.1" stroke-miterlimit="10" stroke-linecap="square"/>
</g>
<g opacity="0.75">
<path d="M33.1008 8.30237C33.2938 8.59742 35.2778 9.88001 34.9004 10.2116C34.3791 10.6696 33.2531 9.8805 32.7943 9.64212" fill="#0B0D12"/>
<path d="M33.1008 8.30237C33.2938 8.59742 35.2778 9.88001 34.9004 10.2116C34.3791 10.6696 33.2531 9.8805 32.7943 9.64212" stroke="#0B0D12" stroke-width="0.1" stroke-miterlimit="10" stroke-linecap="square"/>
</g>
<g opacity="0.75">
<path d="M31.6462 9.44128C31.8 9.56719 32.9471 10.848 32.3734 10.848C31.9995 10.848 31.1797 10.7205 31.0342 10.446" fill="#0B0D12"/>
<path d="M31.6462 9.44128C31.8 9.56719 32.9471 10.848 32.3734 10.848C31.9995 10.848 31.1797 10.7205 31.0342 10.446" stroke="#0B0D12" stroke-width="0.1" stroke-miterlimit="10" stroke-linecap="square"/>
</g>
<g opacity="0.75">
<path d="M29.7314 10.2448C29.9168 10.5295 30.2681 10.7147 30.2681 11.0486C30.2681 11.4087 29.8835 11.554 29.5021 11.5847" fill="#0B0D12"/>
<path d="M29.7314 10.2448C29.9168 10.5295 30.2681 10.7147 30.2681 11.0486C30.2681 11.4087 29.8835 11.554 29.5021 11.5847" stroke="#0B0D12" stroke-width="0.1" stroke-miterlimit="10" stroke-linecap="square"/>
</g>
<g opacity="0.75">
<path d="M30.8804 12.1206C30.6869 12.0238 30.2421 11.9974 30.0386 12.0871C29.8035 12.1905 29.5663 12.5511 29.9623 12.6568" fill="#0B0D12"/>
<path d="M30.8804 12.1206C30.6869 12.0238 30.2421 11.9974 30.0386 12.0871C29.8035 12.1905 29.5663 12.5511 29.9623 12.6568" stroke="#0B0D12" stroke-width="0.1" stroke-miterlimit="10" stroke-linecap="square"/>
</g>
<g opacity="0.75">
<path d="M31.9528 11.1154C31.7083 11.2122 31.3623 11.1107 31.1867 11.3166C31.0514 11.4753 31.122 11.724 31.3404 11.8189C31.5462 11.9083 31.6562 12.0489 31.8762 12.1204C32.1943 12.2236 32.5444 12.1875 32.8886 12.1875C33.4462 12.1875 34.4167 12.3366 33.56 11.7184C33.0703 11.365 32.5791 11.1826 31.9528 11.1826" fill="#0B0D12"/>
<path d="M31.9528 11.1154C31.7083 11.2122 31.3623 11.1107 31.1867 11.3166C31.0514 11.4753 31.122 11.724 31.3404 11.8189C31.5462 11.9083 31.6562 12.0489 31.8762 12.1204C32.1943 12.2236 32.5444 12.1875 32.8886 12.1875C33.4462 12.1875 34.4167 12.3366 33.56 11.7184C33.0703 11.365 32.5791 11.1826 31.9528 11.1826" stroke="#0B0D12" stroke-width="0.1" stroke-miterlimit="10" stroke-linecap="square"/>
</g>
<path d="M36.852 2.80901C36.2348 2.83656 35.7541 2.71467 35.1684 2.9431C34.5781 3.17329 34.1694 3.61586 33.7133 4.01481C34.0867 3.52532 34.41 2.77754 35.0144 2.47415C35.239 2.36132 35.7135 2.22426 35.9735 2.36098C36.1631 2.46037 36.8239 2.88499 36.852 2.80896" fill="#0B0D12"/>
<g opacity="0.75">
<path d="M8.52519 5.89087C7.00465 6.27067 5.42212 6.22568 3.85534 6.22568C3.39678 6.22568 2.00342 5.90447 1.67339 6.19202C1.33739 6.48481 3.14944 7.20481 3.35658 7.28255C4.75632 7.80831 6.04192 7.80971 7.55766 7.70752C8.35619 7.65363 9.123 7.55459 9.90825 7.41682C10.4652 7.31918 11.637 7.23756 12.0472 6.89543" fill="#0B0D12"/>
<path d="M8.52519 5.89087C7.00465 6.27067 5.42212 6.22568 3.85534 6.22568C3.39678 6.22568 2.00342 5.90447 1.67339 6.19202C1.33739 6.48481 3.14944 7.20481 3.35658 7.28255C4.75632 7.80831 6.04192 7.80971 7.55766 7.70752C8.35619 7.65363 9.123 7.55459 9.90825 7.41682C10.4652 7.31918 11.637 7.23756 12.0472 6.89543" stroke="#0B0D12" stroke-width="0.1" stroke-miterlimit="10" stroke-linecap="square"/>
</g>
<g opacity="0.75">
<path d="M14.0376 7.96739C12.2506 8.97758 9.96701 9.50805 7.8532 9.50805C7.36396 9.50805 6.69336 9.30978 6.28802 9.07367C5.66625 8.71148 6.18519 8.35313 6.68799 8.30221C7.8747 8.18206 9.01904 8.07412 10.2094 7.90009" fill="#0B0D12"/>
<path d="M14.0376 7.96739C12.2506 8.97758 9.96701 9.50805 7.8532 9.50805C7.36396 9.50805 6.69336 9.30978 6.28802 9.07367C5.66625 8.71148 6.18519 8.35313 6.68799 8.30221C7.8747 8.18206 9.01904 8.07412 10.2094 7.90009" stroke="#0B0D12" stroke-width="0.1" stroke-miterlimit="10" stroke-linecap="square"/>
</g>
<g opacity="0.75">
<path d="M14.3442 8.70416C13.6236 9.00166 12.9519 9.26619 12.1915 9.48835C11.8087 9.6003 11.4357 9.73213 11.0523 9.84321C10.8205 9.91035 10.1415 10.0157 9.98011 10.1782C9.41415 10.7486 11.3702 10.7613 11.667 10.6966C11.9707 10.6305 12.3868 10.6665 12.6596 10.5465C12.9153 10.434 13.28 10.317 13.5786 10.2452" fill="#0B0D12"/>
<path d="M14.3442 8.70416C13.6236 9.00166 12.9519 9.26619 12.1915 9.48835C11.8087 9.6003 11.4357 9.73213 11.0523 9.84321C10.8205 9.91035 10.1415 10.0157 9.98011 10.1782C9.41415 10.7486 11.3702 10.7613 11.667 10.6966C11.9707 10.6305 12.3868 10.6665 12.6596 10.5465C12.9153 10.434 13.28 10.317 13.5786 10.2452" stroke="#0B0D12" stroke-width="0.1" stroke-miterlimit="10" stroke-linecap="square"/>
</g>
<g opacity="0.75">
<path d="M16.7938 9.37405C16.18 9.64277 13.12 10.4582 13.8077 11.3838C14.2083 11.9226 15.5112 11.6242 16.0568 11.4647C16.7912 11.25 17.4791 11.0167 18.1718 10.7138" fill="#0B0D12"/>
<path d="M16.7938 9.37405C16.18 9.64277 13.12 10.4582 13.8077 11.3838C14.2083 11.9226 15.5112 11.6242 16.0568 11.4647C16.7912 11.25 17.4791 11.0167 18.1718 10.7138" stroke="#0B0D12" stroke-width="0.1" stroke-miterlimit="10" stroke-linecap="square"/>
</g>
<g opacity="0.75">
<path d="M19.1676 10.9146C18.6086 11.1472 18.0085 11.3613 17.483 11.6517C17.1437 11.8393 16.2323 12.5225 17.1768 12.5225C17.902 12.5225 18.5062 12.553 19.2274 12.3007C20.009 12.0269 20.6393 11.7036 21.2348 11.1826" fill="#0B0D12"/>
<path d="M19.1676 10.9146C18.6086 11.1472 18.0085 11.3613 17.483 11.6517C17.1437 11.8393 16.2323 12.5225 17.1768 12.5225C17.902 12.5225 18.5062 12.553 19.2274 12.3007C20.009 12.0269 20.6393 11.7036 21.2348 11.1826" stroke="#0B0D12" stroke-width="0.1" stroke-miterlimit="10" stroke-linecap="square"/>
</g>
<g opacity="0.75">
<path d="M15.2632 3.88098C14.9312 4.1293 14.3883 4.19295 14.0015 4.39592C13.6135 4.59978 13.0986 4.65976 12.6885 4.83972C12.361 4.98358 11.8102 5.01706 11.6649 5.35466C11.5466 5.62949 11.8768 5.89088 12.261 5.89088C14.3216 5.89088 16.2654 5.35222 18.1726 4.68471" fill="#0B0D12"/>
<path d="M15.2632 3.88098C14.9312 4.1293 14.3883 4.19295 14.0015 4.39592C13.6135 4.59978 13.0986 4.65976 12.6885 4.83972C12.361 4.98358 11.8102 5.01706 11.6649 5.35466C11.5466 5.62949 11.8768 5.89088 12.261 5.89088C14.3216 5.89088 16.2654 5.35222 18.1725 4.68471" stroke="#0B0D12" stroke-width="0.1" stroke-miterlimit="10" stroke-linecap="square"/>
</g>
<g opacity="0.75">
<path d="M16.8705 5.55569C16.4791 5.84029 15.5952 6.03542 15.112 6.14109C14.5865 6.25601 14.0038 6.55891 13.6548 6.89563C14.2634 7.28311 15.6142 7.15354 16.2395 6.82483C17.1132 6.36569 18.1199 6.06976 19.0137 5.62286" fill="#0B0D12"/>
<path d="M16.8705 5.55569C16.4791 5.84029 15.5952 6.03542 15.112 6.14109C14.5865 6.25601 14.0038 6.55891 13.6548 6.89563C14.2634 7.28311 15.6142 7.15354 16.2395 6.82483C17.1132 6.36569 18.1199 6.06976 19.0137 5.62286" stroke="#0B0D12" stroke-width="0.1" stroke-miterlimit="10" stroke-linecap="square"/>
</g>
<g opacity="0.75">
<path d="M19.9332 5.82355C19.2815 6.27624 18.2811 6.54653 17.531 6.87458C17.1745 7.03065 15.6037 7.63593 15.7988 8.10134C16.0326 8.65953 17.4987 8.19498 17.8747 8.03054C18.5822 7.72119 19.5073 7.29344 20.0867 6.8284" fill="#0B0D12"/>
<path d="M19.9332 5.82355C19.2815 6.27624 18.2811 6.54653 17.531 6.87458C17.1745 7.03065 15.6037 7.63593 15.7988 8.10134C16.0326 8.65953 17.4987 8.19498 17.8747 8.03054C18.5822 7.72119 19.5073 7.29344 20.0867 6.8284" stroke="#0B0D12" stroke-width="0.1" stroke-miterlimit="10" stroke-linecap="square"/>
</g>
<g opacity="0.75">
<path d="M19.8566 7.63239C19.4582 8.03956 18.8899 8.2959 18.4779 8.70392C18.3301 8.8504 17.7055 9.44103 18.2488 9.44103C19.4325 9.44103 20.5435 8.50447 21.3107 7.83322" fill="#0B0D12"/>
<path d="M19.8566 7.63239C19.4582 8.03956 18.8899 8.2959 18.4779 8.70392C18.3301 8.8504 17.7055 9.44103 18.2488 9.44103C19.4325 9.44103 20.5435 8.50447 21.3107 7.83322" stroke="#0B0D12" stroke-width="0.1" stroke-miterlimit="10" stroke-linecap="square"/>
</g>
<g opacity="0.75">
<path d="M21.9228 8.23538C21.5812 8.96185 20.1621 9.27936 20.1621 10.1445C20.1621 10.3839 21.0339 10.1696 21.1747 10.1283C21.6063 10.0022 21.9156 9.78317 22.2293 9.508" fill="#0B0D12"/>
<path d="M21.9228 8.23538C21.5812 8.96185 20.1621 9.27936 20.1621 10.1445C20.1621 10.3839 21.0339 10.1696 21.1747 10.1283C21.6063 10.0022 21.9156 9.78317 22.2293 9.508" stroke="#0B0D12" stroke-width="0.1" stroke-miterlimit="10" stroke-linecap="square"/>
</g>
<g opacity="0.75">
<path d="M23.3785 9.37405C23.1944 9.64295 22.2311 10.5393 22.6129 10.7808C22.9415 10.9886 23.8102 10.4826 24.0679 10.3788" fill="#0B0D12"/>
<path d="M23.3785 9.37405C23.1944 9.64295 22.2311 10.5393 22.6129 10.7808C22.9415 10.9886 23.8102 10.4826 24.0679 10.3788" stroke="#0B0D12" stroke-width="0.1" stroke-miterlimit="10" stroke-linecap="square"/>
</g>
<g opacity="0.75">
<path d="M25.2923 10.1783C25.1416 10.4588 24.7562 10.6364 24.7562 10.9821C24.7562 11.3204 25.2658 11.4013 25.5986 11.5179" fill="#0B0D12"/>
<path d="M25.2923 10.1783C25.1416 10.4588 24.7562 10.6364 24.7562 10.9821C24.7562 11.3204 25.2658 11.4013 25.5986 11.5179" stroke="#0B0D12" stroke-width="0.1" stroke-miterlimit="10" stroke-linecap="square"/>
</g>
<g opacity="0.75">
<path d="M24.1433 12.0533C24.4381 11.9679 24.6828 11.8601 24.9851 11.9867C25.3141 12.1243 25.4092 12.3751 25.062 12.5896" fill="#0B0D12"/>
<path d="M24.1433 12.0533C24.4381 11.9679 24.6828 11.8601 24.9851 11.9867C25.3141 12.1243 25.4092 12.3751 25.062 12.5896" stroke="#0B0D12" stroke-width="0.1" stroke-miterlimit="10" stroke-linecap="square"/>
</g>
<g opacity="0.75">
<path d="M23.071 11.049C23.7685 10.9406 24.2277 11.3357 23.684 11.786C23.2358 12.1572 22.7509 12.1208 22.1527 12.1208C21.5531 12.1208 20.6329 12.1972 21.5112 11.6207C22.0303 11.2799 22.504 11.1158 23.1477 11.1158" fill="#0B0D12"/>
<path d="M23.071 11.049C23.7685 10.9406 24.2277 11.3357 23.684 11.786C23.2358 12.1572 22.7509 12.1208 22.1527 12.1208C21.5531 12.1208 20.6329 12.1972 21.5112 11.6207C22.0303 11.2799 22.504 11.1158 23.1477 11.1158" stroke="#0B0D12" stroke-width="0.1" stroke-miterlimit="10" stroke-linecap="square"/>
</g>
<path d="M18.1719 2.74186C18.7606 2.74186 19.3666 2.57759 19.9326 2.80917C20.4872 3.03604 20.9389 3.54105 21.3104 3.94803C21.031 3.45889 20.6 2.73816 20.0858 2.40703C19.431 1.98521 18.7687 2.44365 18.1719 2.74184" fill="#0B0D12"/>
<path d="M22.5361 20.6962C22.3422 19.2757 25.0596 18.9086 26.2033 18.8558C28.2587 18.7613 30.2932 18.6505 32.3409 18.4713C34.0248 18.3237 35.9256 17.809 37.0811 16.697C38.2024 15.6179 37.1729 13.4254 35.6978 12.9399C34.0707 12.4046 32.4944 11.9072 30.8664 12.7216C30.5854 12.8622 30.0535 13.0212 29.9424 13.3122C29.8108 13.6568 30.3605 13.8875 30.699 13.937C31.5908 14.0671 32.436 14.0765 33.3362 14.0206C34.0977 13.9731 35.294 14.1658 35.4243 14.9659C35.5672 15.8446 34.8115 16.4265 33.956 16.7257C33.2127 16.9857 32.1273 16.9686 31.3314 17.0776C30.4561 17.1974 29.5844 17.2659 28.7033 17.3428C27.9061 17.4126 27.0842 17.3544 26.287 17.4133C25.4294 17.4766 24.6201 17.5181 23.766 17.6672C21.9722 17.9804 20.3157 19.1437 20.3157 20.83C21.056 20.7853 21.7959 20.7407 22.5363 20.6962" fill="#0B0D12"/>
<path d="M22.5361 20.6962C22.3422 19.2757 25.0596 18.9086 26.2033 18.8558C28.2587 18.7613 30.2932 18.6505 32.3409 18.4713C34.0248 18.3237 35.9256 17.809 37.0811 16.697C38.2024 15.6179 37.1729 13.4254 35.6978 12.9399C34.0707 12.4046 32.4944 11.9072 30.8664 12.7216C30.5854 12.8622 30.0535 13.0212 29.9424 13.3122C29.8108 13.6568 30.3605 13.8875 30.699 13.937C31.5908 14.0671 32.436 14.0765 33.3362 14.0206C34.0977 13.9731 35.294 14.1658 35.4243 14.9659C35.5672 15.8446 34.8115 16.4265 33.956 16.7257C33.2127 16.9857 32.1273 16.9686 31.3314 17.0776C30.4561 17.1974 29.5844 17.2659 28.7033 17.3428C27.9061 17.4126 27.0842 17.3544 26.287 17.4133C25.4294 17.4766 24.6201 17.5181 23.766 17.6672C21.9722 17.9804 20.3157 19.1437 20.3157 20.83" fill="#0B0D12"/>
<path d="M22.5361 20.6962C22.3422 19.2757 25.0596 18.9086 26.2033 18.8558C28.2587 18.7613 30.2932 18.6505 32.3409 18.4713C34.0248 18.3237 35.9256 17.809 37.0811 16.697C38.2024 15.6179 37.1729 13.4254 35.6978 12.9399C34.0707 12.4046 32.4944 11.9072 30.8664 12.7216C30.5854 12.8622 30.0535 13.0212 29.9424 13.3122C29.8108 13.6568 30.3605 13.8875 30.699 13.937C31.5909 14.0671 32.436 14.0765 33.3362 14.0206C34.0977 13.9731 35.294 14.1658 35.4243 14.9659C35.5672 15.8446 34.8115 16.4265 33.956 16.7257C33.2127 16.9857 32.1273 16.9686 31.3314 17.0776C30.4561 17.1974 29.5844 17.2659 28.7033 17.3428C27.9061 17.4126 27.0842 17.3544 26.287 17.4133C25.4294 17.4766 24.6201 17.5181 23.766 17.6672C21.9722 17.9804 20.3157 19.1437 20.3157 20.83" stroke="#0B0D12" stroke-width="0.1" stroke-miterlimit="10" stroke-linecap="square"/>
<path d="M26.2113 21.0971C26.0838 15.8941 25.956 10.691 25.8285 5.48795C26.9002 5.51027 27.9719 5.53259 29.0438 5.55508C28.9369 8.64229 28.8301 11.7293 28.7231 14.8165C28.6623 16.5707 28.6017 18.3247 28.541 20.0788C28.53 20.3936 28.5192 20.7082 28.5083 21.023C28.5071 21.0577 26.4374 21.0905 26.2114 21.0969" fill="#0B0D12"/>
<path d="M26.2113 21.0971C26.0838 15.8941 25.956 10.691 25.8285 5.48795C26.9002 5.51027 27.9719 5.53259 29.0438 5.55508C28.8652 10.7134 28.6866 15.8721 28.5081 21.0298" fill="#0B0D12"/>
<path d="M26.2113 21.0971C26.0838 15.8941 25.956 10.691 25.8285 5.48795C26.9002 5.51027 27.9719 5.53259 29.0438 5.55508C28.8652 10.7134 28.6866 15.8721 28.5081 21.0298" stroke="#0B0D12" stroke-width="0.1" stroke-miterlimit="10" stroke-linecap="square"/>
<path d="M28.3542 26.2556C28.2418 29.8491 28.1292 33.4429 28.0168 37.0365C27.9762 38.3329 27.9357 39.6289 27.8951 40.925C27.8905 41.0701 26.9126 40.9634 26.826 40.9442C26.6903 40.9144 26.7427 40.7747 26.7397 40.6614C26.7225 40.0074 26.7054 39.3535 26.6883 38.6994C26.6109 35.7504 26.5338 32.8013 26.4563 29.8523C26.429 28.8121 26.4019 27.7719 26.3746 26.7317C26.3736 26.6918 26.3417 26.3235 26.3816 26.3221C27.0392 26.3001 27.6966 26.278 28.3543 26.2558" fill="#0B0D12"/>
<g opacity="0.75">
<path d="M28.3542 26.2556C28.2418 29.8491 28.1292 33.4429 28.0168 37.0365C27.9762 38.3329 27.9357 39.6289 27.8951 40.925C27.8905 41.0701 26.9126 40.9634 26.826 40.9442C26.6902 40.9144 26.7427 40.7747 26.7397 40.6614C26.7225 40.0074 26.7054 39.3535 26.6883 38.6994C26.5802 34.5739 26.472 30.4484 26.364 26.3225" fill="#0B0D12"/>
<path d="M28.3542 26.2556C28.2418 29.8491 28.1292 33.4429 28.0168 37.0365C27.9762 38.3329 27.9357 39.6289 27.8951 40.925C27.8905 41.0701 26.9126 40.9634 26.826 40.9442C26.6902 40.9144 26.7427 40.7747 26.7397 40.6614C26.7225 40.0074 26.7054 39.3535 26.6883 38.6994C26.5802 34.5739 26.472 30.4484 26.364 26.3225" stroke="#0B0D12" stroke-width="0.1" stroke-miterlimit="10" stroke-linecap="square"/>
</g>
<g opacity="0.75">
<path d="M25.828 6.4935C26.7489 6.97671 28.0149 7.05396 28.9665 6.56064L25.828 6.4935Z" fill="#0B0D12"/>
<path d="M25.828 6.4935C26.7489 6.97671 28.0149 7.05396 28.9665 6.56064" stroke="#0B0D12" stroke-width="0.1" stroke-miterlimit="10" stroke-linecap="square"/>
</g>
<path d="M27.4352 6.02446C29.0267 6.02446 30.3448 4.97419 30.3448 3.54597C30.3448 2.00288 28.9632 1 27.2738 1C25.7848 1 24.2967 2.33577 24.5532 3.68733C24.6696 4.30046 24.8352 5.07453 25.503 5.42524C25.8269 5.59561 27.1597 6.37492 27.4353 6.02441" fill="#0B0D12"/>
<path d="M27.4353 6.02446C29.0268 6.02446 30.3449 4.97419 30.3449 3.54597C30.3449 2.07994 29.036 1 27.3877 1C25.8383 1 24.4957 2.15281 24.5264 3.54597C24.5601 5.06949 25.8748 5.86352 27.4354 6.09144" fill="#0B0D12"/>
<path d="M27.4353 6.02446C29.0268 6.02446 30.3449 4.97419 30.3449 3.54597C30.3449 2.07994 29.036 1 27.3877 1C25.8383 1 24.4957 2.15281 24.5264 3.54597C24.5601 5.06949 25.8748 5.86352 27.4354 6.09145" stroke="#0B0D12" stroke-width="0.1" stroke-miterlimit="10" stroke-linecap="square"/>
<path d="M29.349 33.2899C30.2434 32.3182 30.3997 30.8325 29.5025 29.806C28.4585 28.6115 26.6208 28.4076 25.5048 27.2919C24.8703 26.6573 24.3773 25.9952 25.3677 25.3847C26.1545 24.8998 27.1858 24.7938 28.0965 24.6278C29.7564 24.3256 31.5098 24.0328 32.8935 23.1257C33.6508 22.6292 34.2429 22.092 34.5678 21.2954C34.9216 20.428 34.623 19.8116 34.1426 19.0297C33.4064 17.8317 30.9267 17.3461 29.5184 17.3461C27.9195 17.3461 26.1505 17.3463 24.5647 17.1293C23.596 16.9968 22.6301 16.8418 21.6536 16.764C20.85 16.7 19.9565 16.2142 19.7249 15.5062C19.0412 13.4143 22.5478 14.1286 23.7514 13.9532C24.3339 13.8683 25.7704 13.6229 24.9085 12.9247C24.4159 12.5257 23.2654 12.1878 22.6031 12.1878C20.8719 12.1878 19.1808 12.6882 18.1021 13.9025C17.5895 14.4793 17.3444 15.2431 17.6101 15.9396C17.9369 16.7968 18.619 17.1749 19.4967 17.5791C22.7661 19.085 26.8475 18.1913 30.3058 18.9874C30.9455 19.1346 32.3118 19.4099 32.4166 20.1324C32.5523 21.0697 31.9415 21.5522 31.1412 22.0963C29.7645 23.0322 27.5831 23.1167 25.9361 23.4223C24.8803 23.6181 23.2258 24.2107 22.7479 25.1504C22.1559 26.315 22.4916 27.6196 23.7812 28.3446C24.8387 28.9391 25.9152 29.489 26.9758 30.0745C27.4983 30.3631 27.7494 30.6824 28.1623 31.0456C28.4168 31.2695 28.1396 32.4293 28.1243 32.7542C28.4401 32.7742 29.3072 33.3218 29.3489 33.29" fill="#0B0D12"/>
<path d="M29.349 33.2899C30.2434 32.3182 30.3997 30.8325 29.5025 29.806C28.4585 28.6115 26.6208 28.4076 25.5048 27.2919C24.8703 26.6573 24.3773 25.9952 25.3677 25.3847C26.1545 24.8998 27.1858 24.7938 28.0965 24.6278C29.7564 24.3256 31.5098 24.0328 32.8935 23.1257C33.6508 22.6292 34.2429 22.092 34.5678 21.2954C34.9216 20.428 34.623 19.8116 34.1426 19.0297C33.4064 17.8317 30.9267 17.3461 29.5184 17.3461C27.9195 17.3461 26.1505 17.3463 24.5647 17.1293C23.596 16.9968 22.6301 16.8418 21.6536 16.764C20.85 16.7 19.9565 16.2142 19.7249 15.5062C19.0412 13.4143 22.5478 14.1286 23.7514 13.9532C24.3339 13.8683 25.7704 13.6229 24.9085 12.9247C24.4159 12.5257 23.2654 12.1878 22.6031 12.1878C20.8719 12.1878 19.1808 12.6882 18.1021 13.9025C17.5895 14.4793 17.3444 15.2431 17.6101 15.9396C17.9369 16.7968 18.619 17.1749 19.4967 17.5791C22.7661 19.085 26.8475 18.1913 30.3058 18.9874C30.9455 19.1346 32.3118 19.4099 32.4166 20.1324C32.5523 21.0697 31.9415 21.5522 31.1412 22.0963C29.7645 23.0322 27.5831 23.1167 25.9361 23.4223C24.8803 23.6181 23.2258 24.2107 22.7479 25.1504C22.1559 26.315 22.4916 27.6196 23.7812 28.3446C24.8387 28.9391 25.9152 29.489 26.9758 30.0745C27.4983 30.3631 27.7494 30.6824 28.1623 31.0456C28.4168 31.2695 28.1396 32.4293 28.1243 32.7542C28.5575 32.7814 29.0314 33.0925 29.3489 33.357" fill="#0B0D12"/>
<path d="M29.349 33.2899C30.2434 32.3182 30.3997 30.8325 29.5025 29.806C28.4585 28.6115 26.6208 28.4076 25.5048 27.2919C24.8703 26.6573 24.3773 25.9952 25.3677 25.3847C26.1545 24.8998 27.1858 24.7938 28.0965 24.6278C29.7564 24.3256 31.5098 24.0328 32.8935 23.1257C33.6508 22.6292 34.2429 22.092 34.5678 21.2954C34.9216 20.428 34.623 19.8116 34.1426 19.0297C33.4064 17.8317 30.9267 17.3461 29.5184 17.3461C27.9195 17.3461 26.1505 17.3463 24.5647 17.1293C23.596 16.9968 22.6301 16.8418 21.6536 16.764C20.85 16.7 19.9565 16.2142 19.7249 15.5062C19.0412 13.4143 22.5478 14.1286 23.7514 13.9532C24.3339 13.8683 25.7704 13.6229 24.9085 12.9247C24.4159 12.5257 23.2654 12.1878 22.6031 12.1878C20.8719 12.1878 19.1808 12.6882 18.1021 13.9025C17.5895 14.4793 17.3444 15.2431 17.6101 15.9396C17.9369 16.7968 18.619 17.1749 19.4967 17.5791C22.7661 19.085 26.8475 18.1913 30.3058 18.9874C30.9455 19.1346 32.3118 19.4099 32.4166 20.1324C32.5523 21.0697 31.9415 21.5522 31.1412 22.0963C29.7645 23.0322 27.5831 23.1167 25.9361 23.4223C24.8803 23.6181 23.2258 24.2107 22.7479 25.1504C22.1559 26.315 22.4916 27.6196 23.7812 28.3446C24.8387 28.9391 25.9152 29.489 26.9758 30.0745C27.4983 30.3631 27.7494 30.6824 28.1623 31.0456C28.4168 31.2695 28.1396 32.4293 28.1243 32.7542C28.5575 32.7814 29.0314 33.0925 29.3489 33.357" stroke="#0B0D12" stroke-width="0.1" stroke-miterlimit="10" stroke-linecap="square"/>
<path d="M27.971 40.257C28.3739 40.4438 28.8899 40.0235 28.8899 39.6692C28.8899 39.197 28.8108 38.8942 28.3373 38.617C27.5278 38.1427 26.7622 37.7944 26.0573 37.1754C25.8678 37.4888 25.5981 37.8921 25.5981 38.2449C25.5981 38.741 25.7127 38.8673 26.0176 39.2673C26.1348 39.4211 26.7655 39.6291 26.9762 39.7214C27.3061 39.8656 27.6317 40.0592 27.9711 40.2571" fill="#0B0D12"/>
<path d="M27.971 40.257C28.3739 40.4438 28.8899 40.0235 28.8899 39.6692C28.8899 39.197 28.8108 38.8942 28.3373 38.617C27.5278 38.1427 26.7622 37.7944 26.0573 37.1754C25.8678 37.4888 25.5981 37.8921 25.5981 38.2449C25.5981 38.741 25.7127 38.8673 26.0176 39.2673C26.1348 39.4211 26.7655 39.6291 26.9762 39.7214C27.3061 39.8656 27.6317 40.0592 27.9711 40.2571" fill="#0B0D12"/>
<path d="M27.971 40.257C28.3739 40.4438 28.8899 40.0235 28.8899 39.6692C28.8899 39.197 28.8108 38.8942 28.3373 38.617C27.5278 38.1427 26.7622 37.7944 26.0573 37.1754C25.8678 37.4888 25.5981 37.8921 25.5981 38.2449C25.5981 38.741 25.7127 38.8673 26.0176 39.2673C26.1348 39.4211 26.7655 39.6291 26.9762 39.7214C27.3061 39.8656 27.6317 40.0592 27.9711 40.2571" stroke="#0B0D12" stroke-width="0.1" stroke-miterlimit="10" stroke-linecap="square"/>
<path d="M22.7661 12.7904C22.7982 12.8321 22.7362 12.8802 22.8424 12.8575C23.2171 12.4993 22.2535 12.6043 22.6892 12.8575C22.7862 12.8783 22.7448 12.8399 22.7661 12.7904" fill="#0B0D12"/>
<path d="M32.5651 12.9248C32.8692 12.9595 32.8302 12.7424 32.6415 12.7236C32.4442 12.7041 32.284 12.903 32.5651 12.9248Z" fill="#0B0D12"/>
<path d="M29.4266 3.61311C29.8624 4.25658 28.5996 5.20437 28.0477 5.42179C28.65 5.34925 28.8905 5.08698 29.2897 4.737C29.499 4.55355 29.7441 3.73899 29.4266 3.6131" fill="#0B0D12"/>
<path d="M26.3638 26.3228C26.3248 24.9903 26.2857 23.6576 26.2466 22.325C26.2427 22.1929 26.1392 21.0995 26.2692 21.0958C27.0153 21.074 27.7614 21.0524 28.5073 21.0308C28.4696 22.3208 28.4316 23.6109 28.3939 24.9012C28.3873 25.1246 28.531 26.0822 28.3542 26.2559C28.2588 26.3496 27.5017 26.2847 27.359 26.2894C27.0272 26.3006 26.6956 26.3116 26.3638 26.3229" fill="#0B0D12"/>
<path opacity="0.75" d="M28.5076 20.9635L28.3542 26.2556" stroke="#0B0D12" stroke-width="0.1" stroke-miterlimit="10" stroke-linecap="square"/>
<path opacity="0.75" d="M26.3638 26.3228L26.2113 21.0971" stroke="#0B0D12" stroke-width="0.1" stroke-miterlimit="10" stroke-linecap="square"/>
<path d="M32.6418 26.1884C32.1016 23.8189 29.0708 23.3854 26.7472 23.04C25.4712 22.8503 24.5013 22.593 23.4731 21.8739C23.336 21.778 22.4632 20.6998 22.5206 20.6963C21.7856 20.7406 21.0509 20.7847 20.3162 20.829C20.5043 21.4044 20.6428 21.8653 21.0966 22.329C21.5396 22.7819 22.0161 23.1156 22.5818 23.4456C23.6456 24.0665 25.048 24.3685 26.2865 24.5719C27.3652 24.7492 28.7522 24.8239 29.6566 25.418C29.8742 25.5608 30.1215 25.6646 30.213 25.9056C30.3027 26.1428 30.2676 26.2554 30.5637 26.2554C30.8848 26.2556 32.5604 26.3928 32.6418 26.1884" fill="#0B0D12"/>
<g opacity="0.75">
<path d="M20.3157 20.8298C20.6274 21.7834 21.0732 22.4941 22.0002 23.1074C22.8633 23.6783 23.9524 24.0553 24.9859 24.3134C26.6021 24.7171 29.7161 24.5992 30.3448 26.2562" fill="#0B0D12"/>
<path d="M20.3157 20.8298C20.6274 21.7834 21.0732 22.4941 22.0002 23.1074C22.8633 23.6783 23.9524 24.0553 24.9859 24.3134C26.6021 24.7171 29.7161 24.5992 30.3448 26.2562" stroke="#0B0D12" stroke-width="0.1" stroke-miterlimit="10" stroke-linecap="square"/>
</g>
<g opacity="0.75">
<path d="M32.6419 26.1884C31.6578 21.873 24.2695 24.4976 22.537 20.6954L32.6419 26.1884Z" fill="#0B0D12"/>
<path d="M32.6419 26.1884C31.6578 21.873 24.2695 24.4976 22.537 20.6954" stroke="#0B0D12" stroke-width="0.1" stroke-miterlimit="10" stroke-linecap="square"/>
</g>
<path d="M28.0477 35.0985C28.5003 34.5749 26.6073 34.2113 26.2108 34.0268C25.6323 33.7574 24.767 33.2111 24.6525 32.6126C24.5768 32.2178 24.8813 32.2253 25.2762 32.0455C25.6895 31.8573 26.1031 31.6692 26.5164 31.481C26.2302 32.1735 26.8747 32.3219 27.4948 32.5031C28.1527 32.6954 28.6678 32.9913 29.2729 33.2562C29.7478 33.4642 30.0611 34.2375 30.0383 34.6968C30.0162 35.1465 29.7486 35.0394 29.2842 35.0563C28.8723 35.0713 28.4598 35.0935 28.0477 35.0985" fill="#0B0D12"/>
<g opacity="0.75">
<path d="M29.9623 35.0313C30.5159 34.1765 29.3461 33.3088 28.661 32.9544C28.1531 32.6918 27.6859 32.5854 27.1297 32.4187C26.5903 32.2569 26.3131 31.9732 26.5165 31.4807" fill="#0B0D12"/>
<path d="M29.9623 35.0313C30.5159 34.1765 29.3461 33.3088 28.661 32.9544C28.1531 32.6918 27.6859 32.5854 27.1297 32.4187C26.5903 32.2569 26.3131 31.9732 26.5165 31.4807" stroke="#0B0D12" stroke-width="0.1" stroke-miterlimit="10" stroke-linecap="square"/>
</g>
<g opacity="0.75">
<path d="M28.0476 35.0985C28.3699 34.7257 27.3165 34.2948 26.9378 34.2948C25.9404 34.2948 24.7475 33.1085 24.6027 32.352" fill="#0B0D12"/>
<path d="M28.0476 35.0985C28.3699 34.7257 27.3165 34.2948 26.9378 34.2948C25.9404 34.2948 24.7475 33.1085 24.6027 32.352" stroke="#0B0D12" stroke-width="0.1" stroke-miterlimit="10" stroke-linecap="square"/>
</g>
<path d="M24.9857 35.9028C25.2316 37.2881 27.2188 38.1524 28.5078 38.7168C28.6216 38.3525 28.8904 38.1987 28.8904 37.7638C28.8904 37.2587 28.2491 36.976 27.8183 36.7737C27.3755 36.5659 27.055 36.2096 26.67 35.97C26.4422 35.8282 26.3965 35.8439 26.0277 35.8595C25.6805 35.8739 25.333 35.8884 24.9856 35.9029" fill="#0B0D12"/>
<path d="M24.9857 35.9028C25.2316 37.2881 27.2189 38.1524 28.5079 38.7168C28.5806 38.4838 28.8905 38.33 28.8905 38.0615C28.8905 37.6121 28.7954 37.4274 28.4311 37.1085C27.8827 36.6284 26.8975 36.5311 26.5937 35.8357" fill="#0B0D12"/>
<path d="M24.9857 35.9028C25.2316 37.2881 27.2189 38.1524 28.5079 38.7168C28.5806 38.4838 28.8905 38.33 28.8905 38.0615C28.8905 37.6121 28.7954 37.4274 28.4311 37.1085C27.8827 36.6284 26.8975 36.5311 26.5937 35.8357" stroke="#0B0D12" stroke-width="0.1" stroke-miterlimit="10" stroke-linecap="square"/>
</svg>
