<svg width="193" height="17" viewBox="0 0 193 17" fill="none" xmlns="http://www.w3.org/2000/svg">
  <path fill-rule="evenodd" clip-rule="evenodd" d="M38.3577 0.486982C35.9187 1.29713 35.2135 2.18568 35.123 5.26947C35.0776 6.95511 34.9742 11.9597 35.2524 13.3644C36.0869 17.376 43.4816 17.5132 47.1951 16.4025C49.5823 15.6838 50.0481 14.6646 50.0934 11.6919C50.1387 9.49664 50.0934 7.53004 50.1387 5.87708C50.1387 2.61036 49.4077 0.604584 45.8818 0.206043C43.6627 -0.0618291 40.3245 -0.159831 38.3513 0.486982H38.3577ZM47.2339 12.3778V5.00813C47.2921 2.93703 44.2385 3.2049 42.7052 3.2049C41.0232 3.2049 38.086 3.0285 38.086 5.00813V12.3778C38.086 13.4102 39.3799 13.7956 40.8485 13.9002C42.1953 13.9475 43.5436 13.9082 44.8855 13.7826C46.257 13.6781 47.1498 13.2926 47.208 12.3648L47.2339 12.3778Z" fill="#EC2327"/>
  <path fill-rule="evenodd" clip-rule="evenodd" d="M19.9444 0.0669078C23.5157 0.0669078 27.5309 -0.179464 29.7376 0.273328C31.9444 0.72612 33.1 2.12445 33.1 4.93442C33.1 9.59554 31.6375 10.9272 28.3927 11.2669C28.2993 11.2741 28.2054 11.2741 28.1119 11.2669C26.1925 11.4333 23.6593 11.2669 20.4537 11.2669V15.4418C20.4537 15.8551 20.2927 16.2514 20.0062 16.5437C19.7197 16.8358 19.3311 17 18.926 17C18.5208 17 18.1322 16.8358 17.8456 16.5437C17.5591 16.2514 17.3982 15.8551 17.3982 15.4418V12.7784C17.3394 10.8207 17.3982 8.50347 17.3982 6.56581C17.3982 4.9877 17.457 3.29638 17.3982 1.71826C17.3714 1.53635 17.38 1.35082 17.4235 1.17231C17.4671 0.99379 17.5448 0.825808 17.6522 0.677968C17.7595 0.530132 17.8945 0.405351 18.0491 0.310778C18.2038 0.216204 18.3754 0.153697 18.5538 0.126836C19.0121 0.0598283 19.4757 0.039752 19.9379 0.0669078H19.9444ZM28.1772 3.20981H20.4602V8.19053H27.2501C29.2088 8.19053 30.2142 8.05733 30.2991 5.78008C30.384 3.5028 29.7246 3.25643 28.1772 3.20981Z" fill="#EC2327"/>
  <path d="M15.4059 15.4342V8.8808V5.9696C15.4188 2.65114 14.6577 0.614656 11.1299 0.207359C8.91776 -0.0530432 5.56401 -0.173229 3.58403 0.494469C1.15903 1.30906 0.449587 2.21046 0.359294 5.34864C0.359294 6.55717 0.301249 9.44165 0.359294 11.5382V15.4175C0.360139 15.6227 0.400012 15.8257 0.476638 16.015C0.553262 16.2042 0.665138 16.376 0.805877 16.5204C0.946616 16.6649 1.11346 16.7792 1.29689 16.8569C1.48031 16.9346 1.67673 16.9741 1.87492 16.9732C2.27466 16.9733 2.65823 16.8098 2.94209 16.5185C3.22596 16.227 3.38714 15.8314 3.39055 15.4175V9.12116V9.00098V5.08156C3.39055 3.07179 6.33794 3.25206 8.02771 3.25206C9.53044 3.25206 12.5037 2.98499 12.4456 5.08156V14.3091V15.4443C12.4464 15.6495 12.4863 15.8524 12.5629 16.0416C12.6396 16.2309 12.7515 16.4026 12.8922 16.5471C13.0329 16.6916 13.1998 16.8059 13.3832 16.8836C13.5666 16.9613 13.763 17.0009 13.9613 17C14.3598 17 14.742 16.8361 15.0238 16.5443C15.3056 16.2526 15.4059 15.8468 15.4059 15.4342Z" fill="#EC2327"/>
  <path fill-rule="evenodd" clip-rule="evenodd" d="M52.1047 15.44C52.1064 15.0232 52.2681 14.624 52.5545 14.3293C52.8408 14.0346 53.2287 13.8683 53.6338 13.8665H54.6488L61.2659 0.850717C61.4089 0.571358 61.6294 0.342025 61.8993 0.191825C62.1692 0.0416247 62.4764 -0.0226707 62.7819 0.00709865C63.0846 -0.0212538 63.3886 0.0438575 63.6552 0.194119C63.9217 0.344381 64.1387 0.572975 64.2784 0.850717L70.8955 13.8665H71.5462C71.9512 13.8683 72.3391 14.0346 72.6255 14.3293C72.9118 14.624 73.0735 15.0232 73.0752 15.44C73.0744 15.6457 73.0342 15.8492 72.9568 16.039C72.8795 16.2288 72.7667 16.401 72.6247 16.5459C72.4827 16.6907 72.3144 16.8054 72.1293 16.8833C71.9443 16.9612 71.7461 17.0009 71.5462 17H53.6338C53.4338 17.0009 53.2356 16.9612 53.0506 16.8833C52.8655 16.8054 52.6973 16.6907 52.5552 16.5459C52.4132 16.401 52.3004 16.2288 52.2231 16.039C52.1458 15.8492 52.1056 15.6457 52.1047 15.44ZM62.7819 4.6537L58.0907 13.8665H67.4536L62.7819 4.6537Z" fill="#117DC1"/>
  <path fill-rule="evenodd" clip-rule="evenodd" d="M93.7664 0.0593157C93.9865 0.0601876 94.2051 0.101327 94.4081 0.180384C94.6119 0.259441 94.7964 0.374869 94.9513 0.520076C95.1069 0.665282 95.2299 0.837427 95.3137 1.02667C95.3967 1.21592 95.4396 1.41858 95.4382 1.62305V6.21445L104.489 0.285559C104.854 0.048834 105.305 -0.0460932 105.745 0.021042C106.185 0.0881775 106.579 0.312056 106.843 0.644885C106.971 0.812977 107.062 1.00286 107.111 1.20364C107.16 1.40441 107.165 1.61215 107.127 1.81492C107.089 2.01769 107.009 2.21151 106.889 2.38526C106.771 2.55902 106.616 2.70929 106.434 2.82746L97.8213 8.49682L106.434 14.1662C106.8 14.406 107.048 14.7703 107.124 15.1792C107.201 15.5883 107.1 16.0087 106.843 16.3488C106.579 16.6823 106.187 16.9078 105.747 16.9773C105.308 17.0469 104.857 16.9551 104.489 16.7214L95.4382 10.7859V15.4438C95.4382 15.6471 95.3952 15.8484 95.3107 16.0362C95.227 16.2238 95.1032 16.3944 94.9483 16.5378C94.7927 16.6812 94.6082 16.7948 94.4059 16.872C94.2029 16.9492 93.9858 16.9885 93.7664 16.9876C93.3225 16.9877 92.8964 16.8256 92.5808 16.5366C92.2651 16.2477 92.085 15.8551 92.0798 15.4438V1.62305C92.0835 1.2094 92.2621 0.813672 92.5778 0.521166C92.8935 0.228659 93.3203 0.0627919 93.7664 0.0593157Z" fill="#117DC1"/>
  <path fill-rule="evenodd" clip-rule="evenodd" d="M118.281 3.13228V15.4472C118.277 15.8592 118.105 16.253 117.802 16.5437C117.499 16.8343 117.089 16.9982 116.661 17C116.449 17.0009 116.238 16.9613 116.042 16.8837C115.845 16.806 115.667 16.6919 115.516 16.5476C115.366 16.4033 115.246 16.2318 115.165 16.043C115.083 15.8542 115.041 15.6517 115.041 15.4472V3.13228H110.752C110.321 3.13229 109.907 2.96843 109.601 2.67635C109.295 2.38428 109.122 1.98765 109.118 1.57283C109.122 1.15678 109.295 0.758747 109.601 0.464537C109.906 0.170328 110.319 0.00349649 110.752 0H122.571C122.784 0.000877052 122.995 0.0422554 123.192 0.121772C123.39 0.20129 123.568 0.317389 123.719 0.463441C123.869 0.609492 123.988 0.782636 124.069 0.972984C124.151 1.16333 124.191 1.36716 124.191 1.57283C124.191 1.98643 124.02 2.38307 123.716 2.67553C123.413 2.96799 123.001 3.13228 122.571 3.13228H118.281Z" fill="#117DC1"/>
  <path fill-rule="evenodd" clip-rule="evenodd" d="M181.193 6.82671H187.364C189.544 6.82671 190.371 6.90019 190.371 5.04322C190.371 3.70726 189.872 3.13949 187.364 3.13949H181.193V6.82671ZM181.193 13.8738H188.975C190.1 13.6334 190.371 13.0723 190.371 12.0903C190.371 10.2334 189.544 10.3135 187.364 10.3135H181.193V13.8872V13.8738ZM189.121 17C185.893 17 182.64 17 179.412 17C179.021 17.0018 178.646 16.8397 178.367 16.5493C178.089 16.2588 177.931 15.8637 177.927 15.4503V1.56974C177.929 1.15511 178.085 0.75786 178.362 0.464046C178.639 0.170231 179.014 0.00351019 179.406 0C182.147 0 185.015 0 187.712 0C190.409 0 192.993 1.10216 192.993 4.422C193.036 5.50582 192.897 6.58914 192.582 7.62162C192.515 7.80078 192.432 7.973 192.335 8.13598C192.26 8.28491 192.227 8.45373 192.241 8.62203C192.254 8.7904 192.314 8.95094 192.412 9.0845C192.492 9.25583 192.564 9.43204 192.626 9.61217C192.905 10.6063 193.029 11.6419 192.993 12.6782C192.971 13.778 192.561 14.8295 191.843 15.6257C191.126 16.4219 190.152 16.9051 189.114 16.98L189.121 17Z" fill="#117DC1"/>
  <path fill-rule="evenodd" clip-rule="evenodd" d="M78.3324 0.486982C75.8937 1.29713 75.1882 2.18568 75.0978 5.26947C75.0526 6.95511 74.9489 11.9597 75.2275 13.3644C76.0619 17.376 83.4633 17.5132 87.1765 16.4025C89.5574 15.6838 90.0228 14.6646 90.068 11.6919C90.114 9.49664 90.068 7.53004 90.114 5.87708C90.114 2.61036 89.3826 0.604584 85.8568 0.206043C83.6374 -0.0618291 80.2991 -0.159831 78.3265 0.486982H78.3324ZM87.2091 12.3778V5.00813C87.2669 2.93703 84.2132 3.2049 82.68 3.2049C80.9979 3.2049 78.0612 3.0285 78.0612 5.00813V12.3778C78.0612 13.4102 79.355 13.7956 80.8237 13.9002C82.1702 13.9472 83.5188 13.908 84.8601 13.7826C86.2317 13.6781 87.1247 13.2926 87.1832 12.3648L87.2091 12.3778Z" fill="#117DC1"/>
  <path fill-rule="evenodd" clip-rule="evenodd" d="M129.45 0.486982C127.019 1.29713 126.3 2.18568 126.209 5.26947C126.164 6.95511 126.066 11.9597 126.358 13.3644C127.175 17.376 134.604 17.5132 138.311 16.4025C140.696 15.6838 141.17 14.6646 141.228 11.6919C141.228 9.49664 141.228 7.53004 141.228 5.87708C141.26 2.61036 140.495 0.604584 136.97 0.206043C134.752 -0.0618291 131.414 -0.159831 129.425 0.486982H129.45ZM138.331 12.3778V5.00813C138.389 2.93703 135.323 3.2049 133.793 3.2049C132.114 3.2049 129.165 3.0285 129.165 5.00813V12.3778C129.165 13.4102 130.461 13.7956 131.952 13.9002C133.295 13.9473 134.64 13.9081 135.977 13.7826C137.359 13.6781 138.246 13.2926 138.311 12.3648L138.331 12.3778Z" fill="#117DC1"/>
  <path fill-rule="evenodd" clip-rule="evenodd" d="M164.177 0.486982C161.73 1.29713 161.031 2.18568 160.94 5.26947C160.902 6.95511 160.798 11.9597 161.077 13.3644C161.911 17.376 169.309 17.5132 173.024 16.4025C175.412 15.6838 175.878 14.6646 175.923 11.6919C175.962 9.49664 175.923 7.53004 175.962 5.87708C175.962 2.61036 175.23 0.604584 171.71 0.206043C169.484 -0.0618291 166.151 -0.159831 164.177 0.486982ZM173.082 12.3778V5.00813C173.14 2.93703 170.079 3.2049 168.552 3.2049C166.869 3.2049 163.924 3.0285 163.924 5.00813V12.3778C163.924 13.4102 165.218 13.7956 166.694 13.9002C168.04 13.9475 169.386 13.9083 170.726 13.7826C172.105 13.6781 172.998 13.2926 173.056 12.3648L173.082 12.3778Z" fill="#117DC1"/>
  <path fill-rule="evenodd" clip-rule="evenodd" d="M145.97 0.0501237C149.55 0.0501237 153.341 -0.16309 155.544 0.289973C157.749 0.743033 158.924 2.1422 158.924 4.95386C158.924 9.61771 157.462 10.9503 154.221 11.2967C154.128 11.3036 154.034 11.3036 153.94 11.2967C151.984 11.4633 149.473 11.3301 146.29 11.3301V15.441C146.29 15.8544 146.129 16.251 145.843 16.5434C145.557 16.8358 145.169 17 144.764 17C144.359 17 143.971 16.8358 143.685 16.5434C143.398 16.251 143.238 15.8544 143.238 15.441V12.7759C143.166 10.817 143.199 8.49837 143.238 6.5529C143.238 4.97385 143.283 3.28818 143.238 1.70913C143.183 1.34073 143.275 0.9654 143.491 0.665582C143.707 0.365761 144.032 0.165965 144.392 0.11008C144.846 0.0466257 145.304 0.0265417 145.761 0.0501067L145.97 0.0501237ZM153.954 3.22156H146.284V8.20523H153.053C155.01 8.20523 156.028 8.07197 156.119 5.80002C156.21 3.52804 155.539 3.2682 153.947 3.22156H153.954Z" fill="#117DC1"/>
</svg>
