<svg width="465" height="41" viewBox="0 0 465 41" fill="none" xmlns="http://www.w3.org/2000/svg">
  <path fill-rule="evenodd" clip-rule="evenodd" d="M91.7053 1.17448C85.823 3.12837 84.1223 5.27135 83.9039 12.7087C83.7945 16.7741 83.545 28.844 84.2159 32.2319C86.2287 41.9068 104.063 42.2376 113.019 39.5589C118.776 37.8257 119.9 35.3675 120.009 28.198C120.118 22.9037 120.009 18.1607 120.118 14.1741C120.118 6.29556 118.355 1.45811 109.852 0.496927C104.5 -0.149117 96.4486 -0.385475 91.6897 1.17448H91.7053ZM113.112 29.8524V12.0784C113.253 7.08342 105.888 7.72946 102.19 7.72946C98.1338 7.72946 91.0499 7.30402 91.0499 12.0784V29.8524C91.0499 32.3422 94.1705 33.2718 97.7124 33.5239C100.961 33.6382 104.213 33.5433 107.449 33.2403C110.756 32.9882 112.91 32.0586 113.05 29.8211L113.112 29.8524Z" fill="#EC2327"/>
  <path fill-rule="evenodd" clip-rule="evenodd" d="M47.2969 0.161366C55.9099 0.161366 65.5937 -0.432824 70.9157 0.659203C76.2379 1.75123 79.0251 5.12366 79.0251 11.9006C79.0251 23.1422 75.4979 26.3539 67.6722 27.173C67.4468 27.1905 67.2204 27.1905 66.995 27.173C62.3657 27.5744 56.2564 27.173 48.5251 27.173V37.242C48.5251 38.2387 48.1369 39.1945 47.446 39.8994C46.7549 40.604 45.8177 41 44.8406 41C43.8634 41 42.9262 40.604 42.2351 39.8994C41.5442 39.1945 41.156 38.2387 41.156 37.242V30.8184C41.0143 26.097 41.156 20.5084 41.156 15.8352C41.156 12.0291 41.2977 7.95009 41.156 4.14404C41.0913 3.70531 41.112 3.25786 41.2171 2.82732C41.3222 2.39679 41.5097 1.99165 41.7687 1.6351C42.0274 1.27855 42.3529 0.97761 42.7259 0.749522C43.099 0.521434 43.5128 0.37068 43.9431 0.305899C45.0483 0.144292 46.1665 0.0958725 47.2812 0.161366H47.2969ZM67.1525 7.74131H48.5408V19.7536H64.9165C69.6404 19.7536 72.0652 19.4324 72.2699 13.9402C72.4747 8.44792 70.8843 7.85374 67.1525 7.74131Z" fill="#EC2327"/>
  <path d="M36.351 37.2235V21.4184V14.3973C36.3821 6.39391 34.5467 1.4824 26.0383 0.500102C20.7032 -0.127928 12.6148 -0.417788 7.83951 1.19254C1.99099 3.15714 0.279983 5.3311 0.0622183 12.8997C0.0622183 15.8143 -0.0777729 22.771 0.0622183 27.8274V37.1834C0.0642566 37.6783 0.160422 38.1679 0.345224 38.6243C0.530023 39.0806 0.799841 39.4949 1.13927 39.8432C1.4787 40.1917 1.88109 40.4675 2.32347 40.6549C2.76585 40.8422 3.23956 40.9376 3.71754 40.9354C4.68164 40.9356 5.6067 40.5413 6.29131 39.8386C6.97593 39.1357 7.36467 38.1815 7.37288 37.1834V21.9981V21.7082V12.2555C7.37288 7.40843 14.4813 7.8432 18.5566 7.8432C22.1808 7.8432 29.3515 7.19908 29.2114 12.2555V34.5102V37.2479C29.2136 37.7428 29.3097 38.2323 29.4945 38.6886C29.6793 39.145 29.9492 39.5593 30.2886 39.9076C30.6279 40.2561 31.0304 40.5319 31.4727 40.7192C31.9151 40.9067 32.3888 41.0021 32.8669 41C33.8281 41 34.7499 40.6046 35.4296 39.901C36.1092 39.1974 36.351 38.2187 36.351 37.2235Z" fill="#EC2327"/>
  <path fill-rule="evenodd" clip-rule="evenodd" d="M124.86 37.2376C124.864 36.2324 125.254 35.2696 125.944 34.5589C126.635 33.8481 127.571 33.4471 128.548 33.4428H130.995L146.954 2.05173C147.299 1.37798 147.831 0.824884 148.482 0.462637C149.133 0.100389 149.874 -0.0546763 150.611 0.0171202C151.341 -0.051259 152.074 0.105774 152.717 0.46817C153.36 0.830565 153.883 1.38188 154.22 2.05173L170.179 33.4428H171.748C172.725 33.4471 173.66 33.8481 174.351 34.5589C175.042 35.2696 175.432 36.2324 175.436 37.2376C175.434 37.7337 175.337 38.2246 175.15 38.6822C174.964 39.14 174.692 39.5553 174.349 39.9047C174.007 40.2539 173.601 40.5306 173.154 40.7185C172.708 40.9064 172.23 41.0021 171.748 41H128.548C128.065 41.0021 127.587 40.9064 127.141 40.7185C126.695 40.5306 126.289 40.2539 125.946 39.9047C125.604 39.5553 125.332 39.14 125.145 38.6822C124.959 38.2246 124.862 37.7337 124.86 37.2376ZM150.611 11.2236L139.297 33.4428H161.878L150.611 11.2236Z" fill="#117DC1"/>
  <path fill-rule="evenodd" clip-rule="evenodd" d="M225.338 0.143055C225.869 0.145158 226.396 0.244376 226.886 0.435043C227.377 0.625711 227.822 0.904096 228.196 1.2543C228.571 1.6045 228.868 2.01968 229.07 2.47609C229.27 2.93251 229.374 3.42127 229.37 3.91441V14.9878L251.199 0.6887C252.08 0.117776 253.166 -0.111166 254.228 0.0507483C255.288 0.212663 256.238 0.752604 256.876 1.55531C257.184 1.96071 257.404 2.41866 257.522 2.90289C257.64 3.38711 257.652 3.88812 257.561 4.37716C257.47 4.8662 257.275 5.33363 256.987 5.75269C256.701 6.17174 256.328 6.53416 255.89 6.81917L235.118 20.4923L255.89 34.1656C256.771 34.7439 257.37 35.6224 257.554 36.6087C257.74 37.5952 257.495 38.6093 256.876 39.4295C256.24 40.2338 255.293 40.7775 254.233 40.9452C253.173 41.113 252.085 40.8916 251.199 40.3281L229.37 26.0131V37.2469C229.37 37.7371 229.266 38.2227 229.063 38.6754C228.861 39.128 228.562 39.5393 228.189 39.8853C227.813 40.2311 227.368 40.5051 226.88 40.6912C226.391 40.8775 225.867 40.9722 225.338 40.97C224.268 40.9702 223.24 40.5794 222.479 39.8824C221.717 39.1856 221.283 38.2387 221.271 37.2469V3.91441C221.279 2.91679 221.71 1.96238 222.472 1.25693C223.233 0.551471 224.262 0.151439 225.338 0.143055Z" fill="#117DC1"/>
  <path fill-rule="evenodd" clip-rule="evenodd" d="M284.461 7.55432V37.2551C284.452 38.2485 284.038 39.1985 283.307 39.8994C282.576 40.6003 281.587 40.9957 280.554 41C280.043 41.0021 279.534 40.9067 279.06 40.7196C278.587 40.5322 278.156 40.2568 277.793 39.9088C277.431 39.5609 277.143 39.1473 276.946 38.6918C276.75 38.2366 276.648 37.7481 276.648 37.2551V7.55432H266.304C265.263 7.55435 264.266 7.15915 263.528 6.45473C262.79 5.75032 262.372 4.79373 262.363 3.7933C262.372 2.78987 262.788 1.82992 263.526 1.12035C264.263 0.410791 265.26 0.00843269 266.304 0H294.807C295.322 0.00211524 295.831 0.10191 296.307 0.293686C296.782 0.485465 297.213 0.765468 297.576 1.11771C297.938 1.46995 298.226 1.88753 298.421 2.34661C298.618 2.80568 298.716 3.29727 298.714 3.7933C298.714 4.79079 298.303 5.74741 297.57 6.45273C296.837 7.15808 295.844 7.55432 294.807 7.55432H284.461Z" fill="#117DC1"/>
  <path fill-rule="evenodd" clip-rule="evenodd" d="M436.191 16.4644H451.074C456.33 16.4644 458.325 16.6416 458.325 12.163C458.325 8.94104 457.122 7.5717 451.074 7.5717H436.191V16.4644ZM436.191 33.4604H454.96C457.671 32.8805 458.325 31.5272 458.325 29.159C458.325 24.6806 456.33 24.8738 451.074 24.8738H436.191V33.4927V33.4604ZM455.31 41C447.525 41 439.679 41 431.894 41C430.953 41.0042 430.046 40.6133 429.374 39.9129C428.704 39.2124 428.324 38.2594 428.315 37.2624V3.78585C428.318 2.78586 428.695 1.82778 429.362 1.11917C430.03 0.410556 430.935 0.00846574 431.88 0C438.491 0 445.407 0 451.913 0C458.418 0 464.648 2.65815 464.648 10.6648C464.752 13.2787 464.417 15.8914 463.658 18.3815C463.497 18.8136 463.297 19.229 463.063 19.622C462.882 19.9812 462.802 20.3884 462.836 20.7943C462.868 21.2004 463.011 21.5876 463.247 21.9097C463.442 22.3229 463.615 22.7479 463.763 23.1823C464.437 25.5799 464.736 28.0775 464.648 30.5767C464.596 33.2292 463.608 35.7653 461.876 37.6856C460.146 39.6058 457.798 40.7711 455.294 40.9517L455.31 41Z" fill="#117DC1"/>
  <path fill-rule="evenodd" clip-rule="evenodd" d="M188.115 1.17448C182.233 3.12837 180.532 5.27135 180.314 12.7087C180.205 16.7741 179.955 28.844 180.626 32.2319C182.639 41.9068 200.489 42.2376 209.445 39.5589C215.187 37.8257 216.309 35.3675 216.418 28.198C216.529 22.9037 216.418 18.1607 216.529 14.1741C216.529 6.29556 214.765 1.45811 206.262 0.496927C200.909 -0.149117 192.858 -0.385475 188.1 1.17448H188.115ZM209.523 29.8524V12.0784C209.663 7.08342 202.298 7.72946 198.6 7.72946C194.543 7.72946 187.461 7.30402 187.461 12.0784V29.8524C187.461 32.3422 190.581 33.2718 194.123 33.5239C197.371 33.6374 200.623 33.5428 203.858 33.2403C207.166 32.9882 209.32 32.0586 209.461 29.8211L209.523 29.8524Z" fill="#117DC1"/>
  <path fill-rule="evenodd" clip-rule="evenodd" d="M311.4 1.17448C305.536 3.12837 303.801 5.27135 303.582 12.7087C303.473 16.7741 303.238 28.844 303.942 32.2319C305.911 41.9068 323.828 42.2376 332.769 39.5589C338.522 37.8257 339.664 35.3675 339.805 28.198C339.805 22.9037 339.805 18.1607 339.805 14.1741C339.882 6.29556 338.037 1.45811 329.534 0.496927C324.187 -0.149117 316.136 -0.385475 311.337 1.17448H311.4ZM332.817 29.8524V12.0784C332.957 7.08342 325.563 7.72946 321.872 7.72946C317.824 7.72946 310.712 7.30402 310.712 12.0784V29.8524C310.712 32.3422 313.837 33.2718 317.433 33.5239C320.671 33.6376 323.915 33.543 327.141 33.2403C330.472 32.9882 332.613 32.0586 332.769 29.8211L332.817 29.8524Z" fill="#117DC1"/>
  <path fill-rule="evenodd" clip-rule="evenodd" d="M395.15 1.17448C389.251 3.12837 387.564 5.27135 387.346 12.7087C387.253 16.7741 387.003 28.844 387.675 32.2319C389.687 41.9068 407.528 42.2376 416.488 39.5589C422.248 37.8257 423.372 35.3675 423.481 28.198C423.574 22.9037 423.481 18.1607 423.574 14.1741C423.574 6.29556 421.81 1.45811 413.319 0.496927C407.95 -0.149117 399.912 -0.385475 395.15 1.17448ZM416.629 29.8524V12.0784C416.768 7.08342 409.385 7.72946 405.702 7.72946C401.643 7.72946 394.541 7.30402 394.541 12.0784V29.8524C394.541 32.3422 397.663 33.2718 401.222 33.5239C404.467 33.6382 407.714 33.5435 410.947 33.2403C414.271 32.9882 416.425 32.0586 416.566 29.8211L416.629 29.8524Z" fill="#117DC1"/>
  <path fill-rule="evenodd" clip-rule="evenodd" d="M351.24 0.120886C359.874 0.120886 369.017 -0.393334 374.332 0.699345C379.649 1.79202 382.482 5.16648 382.482 11.9475C382.482 23.1956 378.957 26.4095 371.14 27.245C370.915 27.2616 370.688 27.2616 370.463 27.245C365.745 27.6468 359.688 27.3254 352.012 27.3254V37.2399C352.012 38.2371 351.624 39.1935 350.934 39.8987C350.244 40.6039 349.308 41 348.332 41C347.356 41 346.42 40.6039 345.73 39.8987C345.038 39.1935 344.651 38.2371 344.651 37.2399V30.8124C344.479 26.0881 344.558 20.4961 344.651 15.804C344.651 11.9957 344.761 7.93032 344.651 4.12201C344.52 3.23352 344.74 2.32832 345.262 1.60523C345.784 0.882128 346.566 0.400268 347.435 0.265487C348.529 0.11245 349.635 0.0640122 350.738 0.120845L351.24 0.120886ZM370.495 7.76964H351.998V19.7891H368.324C373.043 19.7891 375.497 19.4677 375.717 13.9883C375.937 8.50879 374.318 7.88212 370.479 7.76964H370.495Z" fill="#117DC1"/>
</svg>
