<svg width="156" height="156" viewBox="0 0 156 156" fill="none" xmlns="http://www.w3.org/2000/svg">
  <circle cx="78" cy="78" r="78" fill="#444BD2"/>
  <path d="M55.0834 59.6667C55.0834 47.0101 65.3435 36.75 78 36.75C90.6566 36.75 100.917 47.0101 100.917 59.6667C100.917 72.3232 90.6566 82.5833 78 82.5833C65.3435 82.5833 55.0834 72.3232 55.0834 59.6667ZM78 73.4167C85.594 73.4167 91.75 67.2606 91.75 59.6667C91.75 52.0728 85.594 45.9167 78 45.9167C70.4061 45.9167 64.25 52.0728 64.25 59.6667C64.25 67.2606 70.4061 73.4167 78 73.4167Z" fill="white"/>
  <path d="M52.0728 97.9061C45.1965 104.782 41.3334 114.109 41.3334 123.833H50.5C50.5 116.54 53.3974 109.545 58.5546 104.388C63.7119 99.2306 70.7066 96.3333 78 96.3333C85.2935 96.3333 92.2882 99.2306 97.4455 104.388C102.603 109.545 105.5 116.54 105.5 123.833H114.667C114.667 114.109 110.804 104.782 103.927 97.9061C97.051 91.0298 87.7246 87.1667 78 87.1667C68.2754 87.1667 58.9491 91.0298 52.0728 97.9061Z" fill="white"/>
</svg>
