<svg width="167" height="27" viewBox="0 0 167 27" fill="none" xmlns="http://www.w3.org/2000/svg">
  <path d="M26.1273 9.19055L18.0333 7.99978L14.415 0.574421C14.3162 0.371119 14.1536 0.206541 13.9527 0.106503C13.4491 -0.145204 12.837 0.0645523 12.5851 0.574421L8.96687 7.99978L0.872797 9.19055C0.649644 9.22282 0.445618 9.32931 0.289411 9.49066C0.100566 9.68715 -0.00349683 9.95148 8.97264e-05 10.2256C0.00367629 10.4997 0.114619 10.7612 0.308539 10.9525L6.16471 16.7321L4.78116 24.8932C4.74872 25.0831 4.76947 25.2783 4.84107 25.4568C4.91267 25.6353 5.03224 25.79 5.18624 25.9032C5.34024 26.0164 5.5225 26.0837 5.71235 26.0974C5.90219 26.1111 6.09204 26.0707 6.26035 25.9807L13.5001 22.1277L20.7398 25.9807C20.9374 26.0872 21.167 26.1227 21.3869 26.084C21.9416 25.9872 22.3146 25.4547 22.219 24.8932L20.8354 16.7321L26.6916 10.9525C26.851 10.7944 26.9562 10.5879 26.9881 10.362C27.0741 9.79723 26.6852 9.27446 26.1273 9.19055Z" fill="#444BD2"/>
  <path d="M61.1273 9.19055L53.0333 7.99978L49.415 0.574421C49.3162 0.371119 49.1536 0.206541 48.9527 0.106503C48.4491 -0.145204 47.837 0.0645523 47.5851 0.574421L43.9669 7.99978L35.8728 9.19055C35.6496 9.22282 35.4456 9.32931 35.2894 9.49066C35.1006 9.68715 34.9965 9.95148 35.0001 10.2256C35.0037 10.4997 35.1146 10.7612 35.3085 10.9525L41.1647 16.7321L39.7812 24.8932C39.7487 25.0831 39.7695 25.2783 39.8411 25.4568C39.9127 25.6353 40.0322 25.79 40.1862 25.9032C40.3402 26.0164 40.5225 26.0837 40.7123 26.0974C40.9022 26.1111 41.092 26.0707 41.2603 25.9807L48.5001 22.1277L55.7398 25.9807C55.9374 26.0872 56.167 26.1227 56.3869 26.084C56.9416 25.9872 57.3146 25.4547 57.219 24.8932L55.8354 16.7321L61.6916 10.9525C61.851 10.7944 61.9562 10.5879 61.9881 10.362C62.0741 9.79723 61.6852 9.27446 61.1273 9.19055Z" fill="#444BD2"/>
  <path d="M96.1273 9.19055L88.0333 7.99978L84.415 0.574421C84.3162 0.371119 84.1536 0.206541 83.9527 0.106503C83.4491 -0.145204 82.837 0.0645523 82.5851 0.574421L78.9669 7.99978L70.8728 9.19055C70.6496 9.22282 70.4456 9.32931 70.2894 9.49066C70.1006 9.68715 69.9965 9.95148 70.0001 10.2256C70.0037 10.4997 70.1146 10.7612 70.3085 10.9525L76.1647 16.7321L74.7812 24.8932C74.7487 25.0831 74.7695 25.2783 74.8411 25.4568C74.9127 25.6353 75.0322 25.79 75.1862 25.9032C75.3402 26.0164 75.5225 26.0837 75.7123 26.0974C75.9022 26.1111 76.092 26.0707 76.2603 25.9807L83.5001 22.1277L90.7398 25.9807C90.9374 26.0872 91.167 26.1227 91.3869 26.084C91.9416 25.9872 92.3146 25.4547 92.219 24.8932L90.8354 16.7321L96.6916 10.9525C96.851 10.7944 96.9562 10.5879 96.9881 10.362C97.0741 9.79723 96.6852 9.27446 96.1273 9.19055Z" fill="#444BD2"/>
  <path d="M131.127 9.19055L123.033 7.99978L119.415 0.574421C119.316 0.371119 119.154 0.206541 118.953 0.106503C118.449 -0.145204 117.837 0.0645523 117.585 0.574421L113.967 7.99978L105.873 9.19055C105.65 9.22282 105.446 9.32931 105.289 9.49066C105.101 9.68715 104.997 9.95148 105 10.2256C105.004 10.4997 105.115 10.7612 105.309 10.9525L111.165 16.7321L109.781 24.8932C109.749 25.0831 109.769 25.2783 109.841 25.4568C109.913 25.6353 110.032 25.79 110.186 25.9032C110.34 26.0164 110.522 26.0837 110.712 26.0974C110.902 26.1111 111.092 26.0707 111.26 25.9807L118.5 22.1277L125.74 25.9807C125.937 26.0872 126.167 26.1227 126.387 26.084C126.942 25.9872 127.315 25.4547 127.219 24.8932L125.835 16.7321L131.692 10.9525C131.851 10.7944 131.956 10.5879 131.988 10.362C132.074 9.79723 131.685 9.27446 131.127 9.19055Z" fill="#444BD2"/>
  <path d="M166.127 9.19055L158.033 7.99978L154.415 0.574421C154.316 0.371119 154.154 0.206541 153.953 0.106503C153.449 -0.145204 152.837 0.0645523 152.585 0.574421L148.967 7.99978L140.873 9.19055C140.65 9.22282 140.446 9.32931 140.289 9.49066C140.101 9.68715 139.997 9.95148 140 10.2256C140.004 10.4997 140.115 10.7612 140.309 10.9525L146.165 16.7321L144.781 24.8932C144.749 25.0831 144.769 25.2783 144.841 25.4568C144.913 25.6353 145.032 25.79 145.186 25.9032C145.34 26.0164 145.522 26.0837 145.712 26.0974C145.902 26.1111 146.092 26.0707 146.26 25.9807L153.5 22.1277L160.74 25.9807C160.937 26.0872 161.167 26.1227 161.387 26.084C161.942 25.9872 162.315 25.4547 162.219 24.8932L160.835 16.7321L166.692 10.9525C166.851 10.7944 166.956 10.5879 166.988 10.362C167.074 9.79723 166.685 9.27446 166.127 9.19055Z" fill="#444BD2"/>
</svg>
